<?xml version="1.0" encoding="utf-8"?>
<!-- Generator: Adobe Illustrator 25.4.1, SVG Export Plug-In . SVG Version: 6.00 Build 0)  -->
<svg version="1.1" xmlns="http://www.w3.org/2000/svg" xmlns:xlink="http://www.w3.org/1999/xlink" x="0px" y="0px"
	 viewBox="0 0 1920 480" style="enable-background:new 0 0 1920 480;" xml:space="preserve">
<style type="text/css">
	.st0{fill:#8E694A;}
	.st1{fill:#FFFFFF;}
	.st2{font-family:'MyriadPro-Regular';}
	.st3{font-size:9.2746px;}
</style>
<g id="Casa_Raco">
	<g>
		<g>
			<g>
				<g>
					<path class="st0" d="M800.5,54.5c-27.1,0-49.2,22.1-49.2,49.2c0,10.7,3.4,20.9,9.8,29.5l36.4,49c0.1,0.1,0.2,0.2,0.3,0.3
						c1.8,1.9,4.4,1.5,5.7-0.3c10.5-14,29.7-40.1,37-49.9c0,0,0,0,0,0l0-0.1c5.9-8.4,9.1-18.2,9.1-28.5
						C849.7,76.6,827.7,54.5,800.5,54.5z M800.5,130.3c-14.6,0-26.5-11.9-26.5-26.5s11.9-26.5,26.5-26.5s26.5,11.9,26.5,26.5
						S815.1,130.3,800.5,130.3z"/>
				</g>
			</g>
		</g>
		<circle class="st1" cx="800.5" cy="103.9" r="38"/>
		<g>
			<path d="M828.5,114.3c-0.8-3.6-4.6-7.6-9.5-6.3c-0.3,0.1-0.6,0.1-0.6-0.3c0.3-1.5-0.6-2.3-1.5-3.2c-0.3-0.3-0.3-0.5,0.1-0.8
				c0.9-0.8,1.7-1.8,1.4-3.2c-0.1-0.5,0.1-0.8,0.8-0.6c1.4,0.3,2.7,0.3,4-0.2c3.5-1.4,5.7-4.8,5.4-8.5c-0.2-3.2-3-6.2-6.6-7.1
				c-1.9-0.4-3.7-0.4-5.6-0.2c-0.7,0.1-1.5,0.1-2-0.6c0.3-0.3,0.5-0.1,0.7-0.1c0.7,0.2,1.3,0,1.7-0.6c0.5-0.6,0.6-1.2,0.2-1.9
				c-0.5-1-1.5-1.5-2.5-1.2c-1.2,0.3-1.9,1.4-1.9,2.6c0,0.7,0.5,1.3,0.8,1.9c0,0,0,0.1,0,0.1c-2,0.3-4,0.5-5.9,0.4
				c-1.5-0.1-2.9-0.4-3.9-1.7c-0.7-1-0.8-2.5-0.1-3.5c0.6-1,1.8-1.5,2.8-1.2c1.1,0.3,1.8,1.4,1.5,2.4c-0.3,1-1,1.4-2,1.1
				c0-0.1,0-0.2,0-0.2c0.4-0.5,0.5-1-0.1-1.4c-0.4-0.4-0.8-0.3-1.2,0c-0.5,0.4-0.6,0.9-0.2,1.5c0.5,0.9,1.3,1.4,2.4,1.2
				c1-0.1,1.9-0.9,2.1-2c0.5-2-1.3-3.9-3.4-3.7c-2.1,0.2-3.5,2-3.4,4.3c0,0.5,0.3,1-0.7,0.8c-0.8-0.2-1.8-0.2-2.5,0.6
				c-0.1-0.1-0.1-0.2-0.2-0.4c0.5-1.7,0.2-3.3-1.2-4.4c-1.1-0.9-2.4-1.1-3.7-0.5c-1.1,0.5-1.8,1.7-1.7,2.9c0.1,1.2,1.1,2.3,2.3,2.4
				c1.1,0.1,2.1-0.5,2.4-1.5c0.2-0.7-0.1-1.2-0.7-1.4c-0.6-0.2-1,0.1-1.2,0.6c-0.2,0.4,0.2,0.7,0.3,1.1c-1.3,0.4-2.3-0.6-2-1.9
				c0.3-1.4,1.8-2.1,3.1-1.5c1.1,0.5,1.7,1.4,1.7,2.7c0,1.4-0.9,2.6-2.2,3.1c-2.7,1-5.5,0.5-8.3,0.1c0,0,0-0.1,0-0.1
				c0.2-0.4,0.4-0.7,0.6-1c0.7-1.4-0.2-3.3-1.8-3.6c-0.9-0.2-1.6,0.2-2.1,0.9c-0.5,0.7-0.6,1.4-0.1,2.1c0.5,0.7,1.2,0.9,2.1,0.7
				c0.2-0.1,0.3,0,0.4,0.3c-0.5,0.5-1.2,0.5-1.9,0.4c-1.3-0.1-2.5-0.2-3.8-0.1c-4,0.3-7.6,2.7-8.5,7c0,0,0,0,0,0c0,0.6,0,1.2,0,1.8
				c0.6,3.3,2.3,5.6,5.4,6.9c1.4,0.6,2.7,0.6,5.4-0.1c0,0.6,0,1.2,0,1.8c0,1,0.8,1.6,1.4,2.3c0.4,0.4,0.4,0.6,0,1
				c-0.9,0.8-1.7,1.6-1.4,3c0.1,0.5-0.2,0.6-0.7,0.5c-1.8-0.5-3.8-0.4-5.5,0.5c-1.7,0.8-3,2.2-3.8,3.8c-0.2,0.4-0.3,0.8-0.5,1.2
				c-0.9,2.6,0.2,4.9,0.3,5.4c0.2,0.5,0.5,0.9,0.7,1.3c0.6,0.8,1.3,1.5,2.1,2c1.5,1,3.2,1.6,5,1.7c1.4,0.1,2.7,0,4.1-0.1
				c1-0.1,1.4,0.2,1.6,0.9c-1.2-0.5-2-0.4-2.5,0.6c-0.5,0.8-0.2,1.9,0.7,2.5c1.4,1,3.4,0,3.6-1.8c0.1-0.9-0.3-1.7-0.8-2.4
				c0,0,0-0.1,0-0.1c2-0.2,3.9-0.5,5.8-0.4c1.5,0.1,3,0.3,4,1.7c0.8,1.1,0.8,2.6,0.1,3.7c-0.7,1-1.9,1.4-3,1
				c-0.8-0.3-1.5-1.3-1.4-2.1c0.1-0.8,0.6-1.3,1.3-1.5c0.2-0.1,0.5-0.1,0.7,0.1c0.2,0.2,0,0.3-0.1,0.4c-0.3,0.5-0.2,0.9,0.2,1.3
				c0.4,0.3,0.8,0.3,1.1,0c0.4-0.3,0.6-0.7,0.4-1.3c-0.4-1.2-1.8-1.8-3-1.3c-1,0.4-1.7,1.4-1.7,2.5c0.1,1.2,0.6,2.2,1.8,2.8
				c2.2,0.9,4.7-0.6,5-3c0.1-0.5,0.1-1,0.1-1.5c0,0,0.1,0,0.2,0c0.7,0.4,1.3,0.5,2,0.4c0.2,0,0.3-0.1,0.5,0c0.1,0.1,0.2,0.1,0.2,0.2
				c0,0.1,0.1,0.2,0.1,0.4c0,1.5,0.7,2.6,2,3.4c1.2,0.7,2.9,0.6,3.9-0.3c0.9-0.8,1.2-2.3,0.7-3.4c-0.4-1-1.4-1.6-2.5-1.5
				c-1,0.1-1.6,0.7-2,1.6c-0.2,0.5,0.1,0.9,0.4,1.3c0.3,0.3,0.7,0.3,1,0c0.3-0.3,0.6-0.6,0.4-1.1c-0.1-0.2-0.5-0.4-0.2-0.7
				c0.3-0.3,0.6-0.1,1,0c0.8,0.4,1.1,1,0.9,1.8c-0.3,1.6-2.1,2.3-3.5,1.3c-1.1-0.7-1.4-1.7-1.3-2.9c0.2-1.4,1.1-2.3,2.4-2.7
				c2.7-0.9,5.3-0.3,8.1-0.1c0,0,0,0.1,0,0.1c-0.2,0.4-0.4,0.6-0.6,0.9c-0.8,1.5,0.1,3.4,1.8,3.7c0.9,0.2,1.6-0.2,2.1-0.9
				c0.5-0.7,0.5-1.5-0.1-2.2c-0.6-0.7-1.3-0.9-2.1-0.5c-0.1,0.1-0.3,0.1-0.5-0.1c0,0,0,0,0-0.1c0.6-0.5,1.3-0.6,2.1-0.5
				c2.1,0.1,4.2,0.3,6.3-0.4C826.8,122.3,829.4,118.2,828.5,114.3z M814.1,82.5c0,0.1,0,0.2-0.1,0.5c-0.4-1.3-0.1-2,0.7-2.4
				c0.5-0.2,0.9-0.1,1.3,0.2c0.3,0.3,0.4,0.7,0.2,1.1c-0.2,0.3-0.5,0.7-0.8,0.1c-0.2-0.4-0.2-0.7-0.7-0.6
				C814.2,81.6,814.1,82,814.1,82.5z M813.9,86.7L813.9,86.7c0.7,0.4,0.5,0.8,0.2,1.3c-0.4,0.8-1,1.1-1.8,0.8
				c-0.7-0.3-0.9-1.1-0.3-1.6c0.3-0.2,0.6-0.4,0.7,0.2c0.3,1,0.7,0.7,1.2,0.1c0-0.2,0-0.4,0-0.6c-0.5-0.6-1.2-1-2.1-0.8
				c-1.2,1-1.5,1.9-0.8,3c0.7,1,2.1,1.1,3.1,0.4c1.3-1,1.4-2.5,0.2-4.2c3.9-1.5,9.3-0.5,11.8,2.4c2.2,2.5,2.1,6.1-0.2,8.8
				c-2.3,2.7-5.5,3.3-8.4,1.6c-1.2-0.7-2.1-1.7-2-3.3c0.2-1.5,1.1-2.4,2.5-3c1.2-0.5,2.7,0.2,3.3,1.3c0.5,0.9,0.3,2.1-0.6,2.7
				c-0.8,0.6-1.9,0.4-2.3-0.4c-0.2-0.4-0.5-0.8,0.3-0.7c0.5,0,0.8-0.3,0.9-0.8c0.1-0.4-0.1-0.8-0.5-0.9c-0.4-0.2-0.8-0.2-1.2,0.2
				c-0.8,0.7-0.9,2-0.3,3c0.7,1,2.3,1.3,3.4,0.7c1.1-0.7,1.7-2,1.5-3.2c-0.2-1.4-1.5-2.6-3-2.9c-2-0.4-4.4,1.2-4.9,3.3
				c-0.1,0.3-0.1,0.6-0.3,1.1c-2.9-3.1-5.6-6.1-8.4-9c-0.1-0.1-0.3-0.3-0.6-0.6c0.8,0.1,1.4,0.2,2,0.2c1.5,0,3-0.1,4.5-0.1
				C812.8,85.5,813.6,85.6,813.9,86.7z M787.3,87.6c0.1,0.3,0.3,0.5,0.6,0.5c0.3,0,0.5-0.1,0.5-0.4c0.1-0.3,0.1-0.7,0.5-0.5
				c0.4,0.2,0.6,0.5,0.5,1c-0.1,0.7-0.8,1-1.5,0.8c-0.9-0.3-1.2-1-0.8-2C787.5,87.1,787.3,87.3,787.3,87.6z M787,83.1
				c-0.3-0.4,0.1-0.7,0.1-1.1c-0.1-0.6-0.8-0.9-1.3-0.1c-0.1,0.2-0.1,0.7-0.6,0.4c-0.3-0.2-0.5-0.5-0.4-1c0.2-0.7,1-1,1.6-0.7
				c0.4,0.2,0.8,0.5,0.9,1.1c0,0,0,0,0,0C787.7,82.3,787.5,82.7,787,83.1z M784.1,97.8c-1.8,1.3-3.8,1.6-5.9,0.8
				c-2.9-1.1-4.9-4.2-4.6-7.3c0.2-2.9,2.7-5.6,5.7-6.3c2.2-0.5,4.7-0.4,7.6,0.2c-0.7,0.8-1,1.7-0.9,2.7c0.2,1.1,1.1,1.9,2.2,2
				c0.9,0.1,1.8-0.4,2.1-1.3c0.5-1.5-0.5-2.7-2.1-2.5c-0.2,0-0.5,0.3-0.8,0.1c0.5-0.7,1.2-0.7,1.9-0.7c1.5,0,3,0.2,4.5,0.1
				c0.6,0,1.3,0,1.9-0.3c0.2,0,0.5-0.2,0.6,0.2c-3.2,3.4-6.4,6.8-9.8,10.3c0.1-1.5-0.3-2.6-1.1-3.5c-1.5-1.7-3.4-2.1-5.3-1.1
				c-1.4,0.8-2.1,2.4-1.6,4c0.4,1.3,1.7,2.2,3,2c0.9-0.1,1.6-0.5,2-1.4c0.4-0.8,0.3-1.6-0.2-2.3c-0.4-0.5-0.8-0.7-1.4-0.5
				c-0.4,0.1-0.6,0.5-0.6,0.9c0,0.6,0.4,0.9,1,0.9c0.5,0,0.4,0.3,0.3,0.6c-0.3,0.8-1.6,1.1-2.4,0.5c-0.9-0.6-1.1-1.8-0.7-2.8
				c0.6-1.1,2.2-1.8,3.3-1.3c1.3,0.5,2.2,1.4,2.5,2.8C785.9,96,785.2,97.1,784.1,97.8z M784.7,100.8c-0.1-0.8,0.3-1.3,0.8-1.8
				c4.6-4.9,9.3-9.9,13.9-14.8c1.2-1.3,1.9-1.3,3.1,0c4.7,5,9.3,9.9,14,14.9c1.1,1.2,0.9,2.9-0.5,3.8c-0.4,0.3-0.5-0.1-0.7-0.3
				c-2.3-2.5-4.6-4.9-7-7.4c-1.7-1.8-3.3-3.6-5.1-5.4c-1.4-1.5-3.3-1.4-4.7,0.1c-3.9,4.2-7.9,8.4-11.8,12.6c-0.6,0.6-0.9,0.6-1.3,0
				C785.1,102,784.6,101.5,784.7,100.8z M798.1,96.7C798.1,96.7,798.1,96.6,798.1,96.7c0.1,0,0.1,0,0.2,0c0.7,0,1.1,0,1.8,0
				c0,0,0,0,0,0c2,0.1,3.3,1.2,3.5,3.1c0.2,1.5-0.3,2.7-1.7,3.3c0,0,0,0,0,0c-0.2,0.1-0.4,0.1-0.6,0.2c0,0,0,0,0,0
				c-0.8,0-1.6,0-2.5,0.1c-0.3,0-0.5,0-0.6-0.2c-0.1-0.1-0.1-0.2-0.1-0.5C798,100.7,798,98.7,798.1,96.7z M808.1,111.4
				c-1,0.1-1.6-0.4-2-1.3c-0.4-0.9-0.8-1.9-1.2-2.8c-0.6-1.7-1.5-3.2-3.4-3.7c0.4-0.2,0.4-0.1,0.9-0.3c2-0.7,2.9-2,2.9-3.7
				c0-1.6-1-2.6-3-3.1c-0.3-0.1-0.5-0.1-0.8-0.1c0,0,0,0,0,0c-2-0.4-3.9-0.1-5.9-0.2c-0.4,0-0.5,0.2-0.1,0.4c0.6,0.5,0.6,1.3,0.6,2
				c0,3.5,0,7,0,10.5c0,0.9,0,1.8-1,2.5c1.4,0,2.5,0,3.6,0c-0.4-0.4-0.7-0.9-0.7-1.4c-0.1-2.1-0.1-4.3,0-6.4c0.6,0,1.2,0,1.8,0
				c0.7,0,1.3,0.3,1.5,0.5c0.4,0.4,0.8,1,1.1,1.7c0.6,1.3,1.1,2.7,1.7,4.1c0.5,1.3,1.4,2,2.9,1.8c0.2,0,0.5-0.2,0.6,0.1
				c-1.7,1.8-3.4,3.5-5,5.3c-1.3,1.5-2.1,1.5-3.4,0.1c-3.7-3.9-7.4-7.8-11-11.7c-1.2-1.2-1.2-1.2,0-2.5c3.7-3.9,7.3-7.8,11-11.8
				c1.4-1.5,2.1-1.5,3.5,0c3.9,4.1,7.8,8.3,11.7,12.4c0.4,0.4,0.4,0.6,0,1c-1.8,1.8-3.5,3.7-5.3,5.6
				C808.7,110.6,808.4,111,808.1,111.4z M785.6,127.2c-0.4-0.1-0.6-0.4-0.7-0.8c-0.1-0.3,0.1-0.6,0.3-0.8c0.2-0.2,0.5-0.3,0.6,0
				c0.1,0.4,0.2,0.7,0.7,0.7c0.6-0.1,0.6-0.7,0.7-1.4c0.4,0.9,0.2,1.5-0.3,1.9C786.6,127.2,786.1,127.3,785.6,127.2z M787.3,121.3
				c-0.5-0.4-0.5-1-0.2-1.5c0.1-0.5,0.5-0.8,1-0.9c0.5-0.1,0.9,0,1.2,0.4c0.2,0.3,0.4,0.7,0.2,1c-0.1,0.2-0.3,0.4-0.5,0.4
				c-0.3,0-0.4-0.2-0.4-0.4c-0.2-0.8-0.7-0.7-1.1-0.2c-0.1,0.4-0.2,0.8,0.2,1.2c1.4,0.6,2.3,0.4,2.8-0.6c0.4-0.8,0.2-1.6-0.4-2.2
				c-0.7-0.7-1.6-0.8-2.5-0.5c-1.4,0.6-2,2.4-1.1,3.7c0.1,0.2,0.3,0.4,0.6,0.8c-3.6,0.5-7,1.1-10.2-1c-2.6-1.7-3.8-4.9-2.9-7.7
				c1.1-3.3,4-5.5,7.2-5.2c1.6,0.2,3,0.8,4,2.1c1.2,1.4,0.8,3.4-0.8,4.6c-1.4,1.1-3.3,0.9-4.3-0.5c-0.6-0.8-0.5-1.9,0.1-2.7
				c0.6-0.6,1.3-0.9,2.1-0.5c0.4,0.2,0.7,0.5,0.7,0.9c0,0.6-0.5,0.2-0.8,0.4c-0.4,0.2-0.6,0.4-0.6,0.9c0,0.4,0.1,0.7,0.5,0.8
				c0.4,0.2,0.9,0.2,1.2-0.1c0.7-0.6,0.9-1.4,0.6-2.3c-0.3-1-1.2-1.7-2.3-1.7c-1.2,0-2.5,0.9-2.8,2.1c-0.4,1.5,0.2,3.1,1.5,3.8
				c2.4,1.4,5.7-0.1,6.4-2.9c0.1-0.3,0.1-0.6,0.2-1.1c3.1,3.3,6.1,6.5,9.1,9.7c-0.7,0.2-1.1-0.2-1.6-0.2c-1.5,0-2.9,0-4.4,0.1
				C788.9,122.4,787.9,122.4,787.3,121.3z M799.4,124.1c-4.6-4.9-9.3-9.9-13.9-14.8c-1.2-1.3-1.1-2.5,0.2-3.7
				c0.1-0.1,0.2-0.2,0.4-0.4c0.2,0.2,0.4,0.4,0.6,0.6c2.9,3,5.7,6.1,8.6,9.1c1.1,1.1,2.2,2.3,3.2,3.4c1.5,1.7,3.5,1.4,5-0.2
				c3-3.2,6-6.4,9-9.6c0.9-1,1.9-2,2.8-3c0.3-0.4,0.6-0.3,0.9,0c1.3,1.3,1.4,2.4,0.1,3.8c-4.6,4.8-9.1,9.7-13.7,14.6
				C801.4,125.2,800.6,125.3,799.4,124.1z M806.6,122.2c0.1,0,0.2,0,0.3-0.1C806.8,122.2,806.7,122.2,806.6,122.2z M811.5,122.3
				c-1.5-0.2-2.9-0.2-4.4-0.2c-0.3-0.2-0.6,0.1-0.8-0.2c2.7-2.9,5.4-5.8,8.3-8.8c0.4,1.7,1.2,2.8,2.6,3.6c1.4,0.7,2.8,0.6,4.1-0.3
				c1.1-0.8,1.6-1.9,1.4-3.3c-0.2-1.3-1.4-2.4-2.6-2.5c-1.3-0.1-2.3,0.7-2.7,1.9c-0.3,0.9,0.1,1.6,0.8,2.2c0.4,0.3,0.8,0.3,1.2,0
				c0.3-0.2,0.4-0.5,0.3-0.9c-0.1-0.5-0.4-0.7-0.8-0.8c-0.2,0-0.5,0.2-0.6-0.2c0-0.3,0.1-0.6,0.3-0.7c0.5-0.4,1-0.7,1.7-0.4
				c0.9,0.4,1.4,1,1.4,2c0,1.6-1.9,2.9-3.6,2.4c-1.1-0.4-1.9-1.1-2.3-2.2c-0.4-1.1-0.1-1.9,0.7-2.9c1.4-1.6,2.9-2.5,5.1-2.2
				c2.8,0.3,5.3,2.8,6,5.8c0.6,2.6-0.6,5.5-3,7c-1.4,0.9-3,1.4-4.7,1.5c-1.8,0.1-3.6-0.1-5.5-0.5c0.5-0.7,0.9-1.3,0.9-2.1
				c0-1.1-0.7-2.2-1.8-2.5c-0.9-0.3-2,0.1-2.4,0.9c-0.4,0.7-0.5,1.4,0,2.1c0.5,0.7,1.2,0.9,2,0.6c0.2-0.1,0.3-0.1,0.6,0.1
				C813,122.3,812.3,122.4,811.5,122.3z M813.9,120.1c-0.3-0.4-0.9-0.6-1.1,0.1c-0.1,0.3-0.1,0.7-0.5,0.5c-0.4-0.2-0.6-0.5-0.5-1
				c0.2-0.7,1-1.1,1.6-0.7c0.4,0.2,0.7,0.4,0.8,0.9c0,0,0,0,0,0.1c0.3,0.9,0.3,0.9-0.4,1.5C813.5,120.9,814,120.5,813.9,120.1z
				 M814.2,125.5c-0.1,0.3,0,0.5,0.3,0.7c0.4,0.1,0.8,0.1,0.9-0.4c0-0.3,0.1-0.5,0.4-0.4c0.3,0.1,0.4,0.2,0.5,0.5
				c0.3,0.7-0.4,1.4-1.2,1.3c-0.4,0-0.6-0.1-1-0.5c-0.3-0.4-0.3-0.7-0.3-1.1c0-0.3,0-0.7,0.4-0.7C814.6,125,814.2,125.3,814.2,125.5
				z"/>
			<path d="M821.6,106.2c0.9,0.2,1.7,1.5,2.6,0.1c1.3,0,1.4-1.3,2.3-1.9c-0.6-0.1-1.1-0.2-1.5-0.3c0.2-0.3,0.3-0.5,0.5-0.7
				c0.1-0.2,0.3-0.3,0.4-0.4c0.6-0.8,0.5-1-0.4-1.3c-0.9-0.3-2.2-0.1-2.2-1.5c-1.1,0.5-1.7,1.7-3,1.8c0,0.3-0.2,0.5,0,0.8
				c-0.4,1.4,1.4,2,1.2,3.4C821.4,106.1,821.5,106.2,821.6,106.2z"/>
			<path d="M775.4,105.4c0.4,0.1,0.7,0.2,1,0.2c0.3,0.3,0.5,0.8,1.1,0.4v0c0.5,0.2,1,0.3,0.9,0.8c2.1-0.1,1.8-2.4,3.2-3.2
				c0,0-0.1-0.2,0-0.3c0.1-1.3-0.1-1.6-1.3-2.2c-0.3-0.1-0.2-0.6-0.7-0.6c-0.7,0-1.4-0.2-2.2-0.3c0.1,0.5,0.6,0.8,0.6,1.3
				c-0.6,0.1-1.1-0.1-1.7,0c-0.5,0-0.9,0.1-0.6,0.9C775.9,103.4,776.9,104.5,775.4,105.4z"/>
		</g>
	</g>
</g>
<g id="Iglesia_del_Santo_Madero">
	<g>
		<g>
			<g>
				<g>
					<path class="st0" d="M500.3,409.3c-4.4,0-7.9,3.6-7.9,7.9c0,1.7,0.5,3.4,1.6,4.8l5.9,7.9c0,0,0,0,0.1,0c0.3,0.3,0.7,0.2,0.9,0
						c1.7-2.3,4.8-6.5,6-8c0,0,0,0,0,0l0,0c1-1.3,1.5-2.9,1.5-4.6C508.2,412.9,504.7,409.3,500.3,409.3z"/>
				</g>
			</g>
		</g>
		<path class="st0" d="M533.2,461.6h-65.8c-2.5,0-4.5-2-4.5-4.5v-18c0-2.5,2-4.5,4.5-4.5h65.8c2.5,0,4.5,2,4.5,4.5v18
			C537.7,459.6,535.7,461.6,533.2,461.6z"/>
		<text transform="matrix(1 0 0 1 481.0207 445.4484)"><tspan x="0" y="0" class="st1 st2 st3">Iglesia del</tspan><tspan x="-7.8" y="11.1" class="st1 st2 st3">Santo Madero</tspan></text>
	</g>
</g>
<g id="Estanque_de_Luz">
	<g>
		<g>
			<g>
				<g>
					<path class="st0" d="M448.8,259.3c-4.4,0-7.9,3.6-7.9,7.9c0,1.7,0.5,3.4,1.6,4.8l5.9,7.9c0,0,0,0,0.1,0c0.3,0.3,0.7,0.2,0.9,0
						c1.7-2.3,4.8-6.5,6-8c0,0,0,0,0,0l0,0c1-1.3,1.5-2.9,1.5-4.6C456.8,262.8,453.2,259.3,448.8,259.3z"/>
				</g>
			</g>
		</g>
		<path class="st0" d="M478.7,310.5H419c-2.5,0-4.5-2-4.5-4.5v-18c0-2.5,2-4.5,4.5-4.5h59.7c2.5,0,4.5,2,4.5,4.5v18
			C483.2,308.4,481.2,310.5,478.7,310.5z"/>
		<text transform="matrix(1 0 0 1 429.9105 294.2632)"><tspan x="0" y="0" class="st1 st2 st3">Estanque </tspan><tspan x="2" y="11.1" class="st1 st2 st3">de la Luz</tspan></text>
	</g>
</g>
<g id="Plaza_de_Armas">
	<g>
		<g>
			<g>
				<g>
					<path class="st0" d="M738.9,181.1c-4.4,0-7.9,3.6-7.9,7.9c0,1.7,0.5,3.4,1.6,4.8l5.9,7.9c0,0,0,0,0.1,0c0.3,0.3,0.7,0.2,0.9,0
						c1.7-2.3,4.8-6.5,6-8c0,0,0,0,0,0l0,0c1-1.3,1.5-2.9,1.5-4.6C746.9,184.7,743.3,181.1,738.9,181.1z"/>
				</g>
			</g>
		</g>
		<path class="st0" d="M723.8,199.7H658c-2.5,0-4.5-2-4.5-4.5v-7.4c0-2.5,2-4.5,4.5-4.5h65.8c2.5,0,4.5,2,4.5,4.5v7.4
			C728.3,197.7,726.3,199.7,723.8,199.7z"/>
		<text transform="matrix(1 0 0 1 661.7175 194.2639)" class="st1 st2 st3">Plaza de Armas</text>
	</g>
</g>
<g id="Templo_San_Ignacio_De_Loyola">
	<g>
		<g>
			<g>
				<g>
					<path class="st0" d="M808.2,194.7c-4.4,0-7.9,3.6-7.9,7.9c0,1.7,0.5,3.4,1.6,4.8l5.9,7.9c0,0,0,0,0.1,0c0.3,0.3,0.7,0.2,0.9,0
						c1.7-2.3,4.8-6.5,6-8c0,0,0,0,0,0l0,0c1-1.3,1.5-2.9,1.5-4.6C816.1,198.3,812.5,194.7,808.2,194.7z"/>
				</g>
			</g>
		</g>
		<path class="st0" d="M845.3,245.9h-74.2c-2.5,0-4.5-2-4.5-4.5v-18c0-2.5,2-4.5,4.5-4.5h74.2c2.5,0,4.5,2,4.5,4.5v18
			C849.8,243.9,847.7,245.9,845.3,245.9z"/>
		<text transform="matrix(1 0 0 1 785.3196 229.6715)"><tspan x="0" y="0" class="st1 st2 st3">Templo San</tspan><tspan x="-11.5" y="11.1" class="st1 st2 st3">Ignacio De Loyola</tspan></text>
	</g>
</g>
<g id="Plaza_del_Beso">
	<g>
		<g>
			<g>
				<g>
					<path class="st0" d="M849.4,176.8c-4.4,0-7.9,3.6-7.9,7.9c0,1.7,0.5,3.4,1.6,4.8l5.9,7.9c0,0,0,0,0.1,0c0.3,0.3,0.7,0.2,0.9,0
						c1.7-2.3,4.8-6.5,6-8c0,0,0,0,0,0l0,0c1-1.3,1.5-2.9,1.5-4.6C857.3,180.4,853.8,176.8,849.4,176.8z"/>
				</g>
			</g>
		</g>
		<path class="st0" d="M931,195.7h-65.8c-2.5,0-4.5-2-4.5-4.5v-8c0-2.5,2-4.5,4.5-4.5H931c2.5,0,4.5,2,4.5,4.5v8
			C935.5,193.7,933.5,195.7,931,195.7z"/>
		<text transform="matrix(1 0 0 1 870.8834 189.9327)" class="st1 st2 st3">Plaza del Beso</text>
	</g>
</g>
<g id="Plaza_del_reloj">
	<g>
		<g>
			<g>
				<g>
					<path class="st0" d="M848.8,132.3c-4.4,0-7.9,3.6-7.9,7.9c0,1.7,0.5,3.4,1.6,4.8l5.9,7.9c0,0,0,0,0.1,0c0.3,0.3,0.7,0.2,0.9,0
						c1.7-2.3,4.8-6.5,6-8c0,0,0,0,0,0l0,0c1-1.3,1.5-2.9,1.5-4.6C856.8,135.8,853.2,132.3,848.8,132.3z"/>
				</g>
			</g>
		</g>
		<path class="st0" d="M932.7,150.9h-65.8c-2.5,0-4.5-2-4.5-4.5V139c0-2.5,2-4.5,4.5-4.5h65.8c2.5,0,4.5,2,4.5,4.5v7.4
			C937.2,148.8,935.1,150.9,932.7,150.9z"/>
		<text transform="matrix(1 0 0 1 872.1829 145.409)" class="st1 st2 st3">Plaza del Reloj</text>
	</g>
</g>
<g id="Casa_cultura">
	<g>
		<g>
			<g>
				<g>
					<path class="st0" d="M810.2,27.6c-4.4,0-7.9,3.6-7.9,7.9c0,1.7,0.5,3.4,1.6,4.8l5.9,7.9c0,0,0,0,0.1,0c0.3,0.3,0.7,0.2,0.9,0
						c1.7-2.3,4.8-6.5,6-8c0,0,0,0,0,0l0,0c1-1.3,1.5-2.9,1.5-4.6C818.1,31.2,814.6,27.6,810.2,27.6z"/>
				</g>
			</g>
		</g>
		<path class="st0" d="M896.7,47.1h-70.4c-2.5,0-4.5-2-4.5-4.5v-9.2c0-2.5,2-4.5,4.5-4.5h70.4c2.5,0,4.5,2,4.5,4.5v9.2
			C901.2,45.1,899.2,47.1,896.7,47.1z"/>
		<text transform="matrix(1 0 0 1 827.1241 40.7268)" class="st1 st2 st3">Casa de la Cultura</text>
	</g>
</g>
<g id="Santa_Maria_de_Las_parrras">
	<g>
		<g>
			<g>
				<g>
					<path class="st0" d="M1496.8,38.6c-4.4,0-7.9,3.6-7.9,7.9c0,1.7,0.5,3.4,1.6,4.8l5.9,7.9c0,0,0,0,0.1,0c0.3,0.3,0.7,0.2,0.9,0
						c1.7-2.3,4.8-6.5,6-8c0,0,0,0,0,0l0,0c1-1.3,1.5-2.9,1.5-4.6C1504.7,42.1,1501.1,38.6,1496.8,38.6z"/>
				</g>
			</g>
		</g>
		<path class="st0" d="M1529.7,90.4l-65.8,0c-2.5,0-4.5-2-4.5-4.5v-18c0-2.5,2-4.5,4.5-4.5h65.8c2.5,0,4.5,2,4.5,4.5v18
			C1534.1,88.4,1532.1,90.4,1529.7,90.4z"/>
		<text transform="matrix(1 0 0 1 1468.1981 74.1794)"><tspan x="0" y="0" class="st1 st2 st3">Santa María de</tspan><tspan x="9.5" y="11.1" class="st1 st2 st3">Las Parras</tspan></text>
	</g>
</g>
</svg>
