<?xml version="1.0" encoding="utf-8"?>
<!-- Generator: Adobe Illustrator 25.4.1, SVG Export Plug-In . SVG Version: 6.00 Build 0)  -->
<svg version="1.1" id="Capa_1" xmlns="http://www.w3.org/2000/svg" xmlns:xlink="http://www.w3.org/1999/xlink" x="0px" y="0px"
	 viewBox="0 0 340.7 340.7" style="enable-background:new 0 0 340.7 340.7;" xml:space="preserve">
<style type="text/css">
	.st0{fill:#8E694A;}
	.st1{fill:#D6C0AC;}
</style>
<circle class="st1" cx="170.4" cy="170.4" r="170.4"/>
<g>
	<path class="st0" d="M186.2,228.4c5.7-0.3,11.3,0.7,16.8-1c6.7-2.2,11.2-6.7,13.6-13.3c0.1-0.3,0.2-0.6,0.3-0.9c0-0.1,0-0.3,0-0.6
		c-1.4,0-2.8,0-4.1,0c-3.2-0.1-5.4-2.2-5.4-5.4c0-17.5,0-35,0-52.5c0-3.1,2.2-5.2,5.3-5.3c1.6,0,3.2,0,4.7,0
		c-1.8-17.2-15.5-32.5-32.5-35.7c-10.7-2-21.6-2.2-32.2,0.9c-15.5,4.5-27.4,18.9-29.1,34.9c1.5,0,3,0,4.6,0c3.3,0,5.5,2.2,5.5,5.5
		c0,17.4,0,34.9,0,52.3c0,2.9-2,5.3-4.7,5.3c-5.9,0.1-11.9,0.3-17.7-0.3c-10.8-1.2-19.3-10.8-19.6-21.6c-0.1-6.4-0.1-12.7,0-19.1
		c0.2-10.9,9.1-20.5,19.9-21.8c0.4-0.1,0.8-0.1,1.3-0.2c0.7-6.3,2.2-12.4,5.2-17.9c9.9-18.7,25.4-28.7,46.5-29.5
		c7-0.3,14-0.4,21,0.8c20.1,3.6,37.2,20,41.5,40c0.4,1.8,0.7,3.7,1,5.5c0.1,0.8,0.3,1.2,1.2,1.3c12,1.7,20.2,11.1,20.2,23.1
		c0,5.5,0,11.1,0,16.6c-0.1,11.7-8.6,21.3-20.3,22.8c-0.9,0.1-1.3,0.4-1.5,1.3c-3.4,15.3-15.9,25.3-31.5,25.3c-4.9,0-9.8,0-14.6,0
		c-3.6,0-5.7-2.1-5.8-5.7c0-3.2,0-6.5,0-9.7c0-3.3,2.3-5.7,5.3-5.6c3,0,5.1,2.4,5.2,5.6C186.2,225,186.2,226.6,186.2,228.4z
		 M122.9,201.7c0-13.9,0-27.8,0-41.8c-3.2,0-6.4-0.2-9.5,0c-6.3,0.4-11.4,5.7-11.5,12c-0.1,6-0.1,11.9,0,17.9
		c0.1,5.8,4.3,10.9,10,11.7C115.6,202.1,119.2,201.7,122.9,201.7z M217.8,202c3.2,0,6.3,0.1,9.4,0c6.3-0.3,11.5-5.6,11.6-11.9
		c0.1-6.1,0.1-12.2,0-18.2c-0.1-5-3.6-9.6-8.3-11.2c-4.1-1.4-8.4-0.5-12.7-0.8C217.8,174,217.8,187.9,217.8,202z"/>
</g>
</svg>
