<?xml version="1.0" encoding="utf-8"?>
<!-- Generator: Adobe Illustrator 25.4.1, SVG Export Plug-In . SVG Version: 6.00 Build 0)  -->
<svg version="1.1" id="Capa_1" xmlns="http://www.w3.org/2000/svg" xmlns:xlink="http://www.w3.org/1999/xlink" x="0px" y="0px"
	 viewBox="0 0 44.7 27.1" style="enable-background:new 0 0 44.7 27.1;" xml:space="preserve">
<style type="text/css">
	.st0{fill:#8E694A;}
	.st1{fill:#FFFFFF;}
</style>
<g>
	<path class="st0" d="M0,2.6c0-0.1,0.1-0.2,0.1-0.2C0.4,1,1.6,0,3.1,0c1.6,0,3.2,0,4.8,0c0.5,0,0.8,0.3,0.8,0.7
		c0,0.4-0.3,0.7-0.8,0.7c-1.5,0-3,0-4.5,0c-1.3,0-2,0.7-2,2c0,4.5,0,9.1,0,13.6c0,1.3,0.7,2,2,2c0.4,0,0.9,0,1.4,0
		c0-0.2,0-0.3,0-0.5c0-1.2,0-2.3,0-3.5c0-0.8,0.2-1,1-1c5.2,0,10.4,0,15.6,0c5.9,0,11.8,0,17.7,0c0.9,0,1,0.2,1,1c0,1.2,0,2.3,0,3.5
		c0,0.1,0,0.3,0,0.5c0.7,0,1.4,0,2-0.1c0.8-0.1,1.4-0.9,1.4-1.9c0-3,0-6,0-9c0-1.6,0-3.1,0-4.7c0-1.3-0.7-2.1-2-2.1
		c-10.1,0-20.2,0-30.3,0c-0.2,0-0.4,0-0.5,0C10.2,1.2,10,1,10,0.6C10,0.3,10.2,0,10.6,0c0.1,0,0.3,0,0.4,0c10.1,0,20.2,0,30.3,0
		c1.7,0,2.9,0.8,3.3,2.2c0.1,0.4,0.1,0.8,0.1,1.2c0,4.5,0,9,0,13.5c0,2.1-1.3,3.4-3.4,3.4c-8.5,0-17.1,0-25.6,0c-1,0-2,0-2.9,0
		c-0.5,0-0.8-0.3-0.8-0.6c0-0.4,0.2-0.6,0.5-0.6c0.2,0,0.4,0,0.6,0c8.3,0,16.7,0,25,0c0.2,0,0.4,0,0.6,0c0-0.4,0-0.7,0-1.2
		c-0.3,0-0.5,0-0.8,0c-1,0-2,0-3,0c-0.5,0-0.8-0.2-0.8-0.6c0-0.4,0.3-0.7,0.8-0.7c1.3,0,2.5,0,3.8,0c0-0.4,0-0.7,0-1.1
		c-10.9,0-21.7,0-32.6,0c0,0.4,0,0.7,0,1.1c0.2,0,0.4,0,0.6,0c8.3,0,16.7,0,25,0c0.2,0,0.4,0,0.6,0c0.3,0.1,0.5,0.3,0.5,0.7
		c0,0.3-0.2,0.5-0.5,0.6c-0.2,0-0.4,0-0.6,0c-8.3,0-16.7,0-25,0c-0.2,0-0.4,0-0.6,0c0,0.4,0,0.8,0,1.2c0.7,0,1.3,0,1.9,0
		c0.6,0,1.3,0,1.9,0c0.4,0,0.7,0.3,0.7,0.6c0,0.4-0.3,0.7-0.7,0.7c-2.3,0-4.6,0-6.9,0c-1.4,0-2.5-1-2.9-2.4c0-0.1-0.1-0.2-0.1-0.3
		C0,12.6,0,7.6,0,2.6z"/>
	<path class="st0" d="M28.2,5.3c-2,0-4,0-5.9,0c-0.2,0-0.4,0-0.5-0.1c-0.3-0.1-0.5-0.4-0.4-0.7c0-0.3,0.2-0.5,0.6-0.6
		c0.1,0,0.2,0,0.3,0c4,0,8,0,12,0c0.1,0,0.2,0,0.3,0c0.4,0,0.6,0.2,0.6,0.6c0,0.4-0.2,0.6-0.5,0.7c-0.2,0-0.3,0-0.5,0
		C32.1,5.3,30.2,5.3,28.2,5.3z"/>
	<path class="st0" d="M13,22.9c-0.2,1.7-0.9,3.1-2.3,4.1c-0.3,0.2-0.7,0.2-0.9-0.1c-0.2-0.3-0.2-0.7,0.2-1c0.8-0.6,1.4-1.4,1.7-2.4
		c0.1-0.3,0.1-0.5,0.1-0.8c0.1-0.5,0.3-0.7,0.7-0.7C12.8,22.1,13,22.4,13,22.9z"/>
	<path class="st0" d="M31.7,22.8c0-0.5,0.2-0.8,0.6-0.8c0.4,0,0.6,0.2,0.7,0.6c0.1,1.3,0.7,2.4,1.8,3.2c0.3,0.2,0.5,0.5,0.3,0.9
		c-0.1,0.2-0.4,0.3-0.7,0.4c-0.1,0-0.2,0-0.3-0.1C32.7,26,31.9,24.6,31.7,22.8z"/>
	<path class="st0" d="M28.3,24.6c0,0.6,0,1.2,0,1.8c0,0.5-0.2,0.7-0.6,0.7c-0.4,0-0.7-0.3-0.7-0.7c0-1.2,0-2.4,0-3.7
		c0-0.4,0.3-0.7,0.7-0.7c0.4,0,0.6,0.3,0.7,0.8C28.3,23.4,28.3,24,28.3,24.6z"/>
	<path class="st0" d="M16.4,24.6c0-0.6,0-1.2,0-1.8c0-0.5,0.3-0.7,0.6-0.7c0.4,0,0.7,0.3,0.7,0.7c0,1.2,0,2.4,0,3.7
		c0,0.5-0.3,0.7-0.7,0.7c-0.4,0-0.6-0.3-0.7-0.8C16.4,25.8,16.4,25.2,16.4,24.6z"/>
	<path class="st0" d="M21.9,24.6c0-0.6,0-1.2,0-1.8c0-0.5,0.3-0.7,0.6-0.7c0.4,0,0.7,0.3,0.7,0.7c0,1.2,0,2.4,0,3.7
		c0,0.5-0.3,0.7-0.7,0.7c-0.4,0-0.6-0.3-0.7-0.8C21.9,25.8,21.9,25.2,21.9,24.6z"/>
	<path class="st0" d="M38.4,4c0.3,0,0.6,0,1,0c0.4,0,0.6,0.3,0.7,0.6c0,0.3-0.2,0.7-0.6,0.7c-0.7,0-1.4,0-2,0
		c-0.4,0-0.6-0.3-0.6-0.7c0-0.4,0.3-0.6,0.7-0.6C37.8,4,38.1,4,38.4,4z"/>
</g>
</svg>
