<?xml version="1.0" encoding="utf-8"?>
<!-- Generator: Adobe Illustrator 25.4.1, SVG Export Plug-In . SVG Version: 6.00 Build 0)  -->
<svg version="1.1" id="Capa_1" xmlns="http://www.w3.org/2000/svg" xmlns:xlink="http://www.w3.org/1999/xlink" x="0px" y="0px"
	 viewBox="0 0 291.2 181.4" style="enable-background:new 0 0 291.2 181.4;" xml:space="preserve">
<style type="text/css">
	.st0{fill:#8E694A;}
</style>
<g>
	<path class="st0" d="M291.2,125.9c-1.1,4.8-1.8,9.7-3.4,14.3c-13.4,37.8-57.1,52.8-90.5,30.7c-19.4-12.9-28.5-31.7-26.8-55.2
		c1.4-19,10.3-33.9,26-44.8c0.6-0.4,1.2-0.9,2-1.5c-2.4-4.6-4.8-9.1-7.4-14c-1,1.4-1.7,2.4-2.4,3.4c-14.4,20.9-28.9,41.7-43.3,62.7
		c-1.9,2.7-4,4-7.3,3.8c-5.7-0.2-11.3-0.1-17.1-0.1c-2.4,20.8-12.1,36.9-29.9,47.6c-13.7,8.3-28.6,10.5-44.1,6.8
		C14.5,172-5.1,141,1.2,108.5C6.9,78.6,41.6,49,82.3,64.1c2.8-6.1,6.1-12,8.2-18.3c1.2-3.7,0.2-8,0.2-12.6c-2.2,0-4.5,0-6.8,0
		c-3.4-0.1-5.4-1.7-5.4-4.5c0-2.7,2-4.5,5.4-4.5c8.6-0.1,17.2-0.1,25.9,0c3.4,0,5.4,1.8,5.3,4.6c0,2.7-2.1,4.4-5.5,4.4
		c-3.1,0-6.2,0-9.5,0c0,2.9,0,5.5,0,8.4c29.1,0,58.2,0,87.6,0c0-6.4,0-12.9,0-19.3c0-5.9,0-5.9-5.6-8c-5.1-1.9-10.1-3.7-15.2-5.6
		c-3-1.2-4.1-3.4-3.1-6c0.9-2.3,3.2-3.4,5.9-2.4c7.8,2.8,15.6,5.8,23.4,8.8c2.5,1,3.2,2.9,3.2,5.4c0,9.2-0.1,18.4,0,27.6
		c0,1.7,0.5,3.6,1.3,5.1c2.8,5.8,5.8,11.4,8.8,17.1c4.8-1.2,9.4-2.6,14.1-3.5c33.4-6,65.4,17.4,70,51.2c0.1,1,0.4,2,0.6,3
		C291.2,118.7,291.2,122.3,291.2,125.9z M210.7,72.9c0.5,1,0.9,1.9,1.3,2.7c7,13.5,14,27,21.1,40.6c0.5,1,1,2,1.4,3.1
		c0.7,2.2-0.2,3.9-2.2,5c-2,1.1-3.9,0.7-5.3-1.1c-0.6-0.8-1.1-1.8-1.6-2.7c-4.6-8.9-9.2-17.8-13.9-26.7c-2.9-5.5-5.8-11-8.6-16.6
		c-20.6,12.3-31.3,41.2-18.4,66.8c12.3,24.3,43,34.9,67.6,23.1c25.6-12.2,36.9-42.4,25.3-67.7C265.4,73.1,235.6,62.5,210.7,72.9z
		 M78.1,72.4C61.4,65.2,36.6,68.9,21,87.3C6.4,104.6,5,130.5,17.9,149.4c13.3,19.5,37.8,27.5,60.2,19.5
		c21.5-7.7,32.9-28.2,33.1-43.6c-1,0-2.1,0-3.1,0c-15.3,0-30.7,0-46,0c-5.3,0-7.3-3.1-5-8c1.5-3.4,3.2-6.7,4.7-10
		C67.2,95.7,72.6,84.2,78.1,72.4z M182.8,50.6c-3.1,0-5.6,0-8.2,0c-24.6,0-49.2,0-73.9,0c-1.1,0-2.7,0.4-3.1,1.1
		c-2.7,5.2-5.1,10.5-7.6,15.9c18,11.2,28.4,27.1,30.6,48.3c4.8,0,9.5-0.1,14.1,0.1c2.3,0.1,3.8-0.6,5.1-2.6
		c13.6-19.9,27.3-39.8,41-59.7C181.3,52.9,181.8,52,182.8,50.6z M111.8,115.9c-2.1-17.5-10.5-30.5-25.4-39.8
		c-6.3,13.3-12.5,26.4-18.8,39.8C82.4,115.9,96.9,115.9,111.8,115.9z"/>
</g>
</svg>
