<?xml version="1.0" encoding="utf-8"?>
<!-- Generator: Adobe Illustrator 25.4.1, SVG Export Plug-In . SVG Version: 6.00 Build 0)  -->
<svg version="1.1" id="Capa_1" xmlns="http://www.w3.org/2000/svg" xmlns:xlink="http://www.w3.org/1999/xlink" x="0px" y="0px"
	 viewBox="0 0 37.3 28.9" style="enable-background:new 0 0 37.3 28.9;" xml:space="preserve">
<style type="text/css">
	.st0{fill:#8E694A;}
	.st1{fill:#FFFFFF;}
</style>
<g>
	<path class="st1" d="M0,6.9c0.1-0.3,0.1-0.7,0.2-1C1,2.9,3,0.9,6.1,0.2c3.3-0.8,7,1.1,8.5,4.2c0.2,0.5,0.1,1-0.3,1.2
		c-0.4,0.2-0.9,0.1-1.2-0.4c-0.5-0.9-1.1-1.7-1.9-2.3C8.3,0.7,4,1.7,2.4,4.9c-1.5,2.9-0.4,6.4,2.5,8C5,12.9,5.1,13,5.3,13.1
		c0.4,0.3,0.5,0.7,0.3,1.1c-0.2,0.4-0.7,0.5-1.1,0.3C3.1,13.9,2,13,1.2,11.7c-0.6-1-1-2-1.1-3.1c0-0.1,0-0.1-0.1-0.2
		C0,7.9,0,7.4,0,6.9z"/>
	<path class="st1" d="M16.9,21.5c-0.1-0.1-0.2-0.2-0.3-0.3c-3.7-3.7-7.3-7.3-11-11c-0.6-0.6-1-1.4-1.1-2.3C4.2,6.3,5.6,4.6,7.2,4.4
		c1.1-0.1,2.1,0.2,2.9,1c0.9,0.9,1.7,1.7,2.6,2.6c0.1,0.1,0.2,0.2,0.3,0.3C13.3,7.3,14,6.6,15,6.2c1-0.3,2-0.2,2.9,0.5
		c1.4-2.4,2.7-2.9,5.1-1.7c0.2-0.6,0.5-1.2,1.1-1.6c1.3-1.1,3.2-1,4.4,0.3c2.2,2.4,4.5,4.8,6.6,7.4c1.8,2.1,2.4,4.6,2,7.3
		c-0.3,2-1.1,3.7-2.5,5.1c-1,1-2,2-3,3c-1.8,1.7-4,2.5-6.5,2.5c-5.2,0-10.4,0-15.6,0c-1.6,0-2.7-1-2.8-2.5c0-1.4,0.9-2.8,2.1-3.4
		c0.9-0.4,1.8-0.5,2.8-0.6c1.6-0.3,3.2-0.5,4.9-0.8C16.6,21.5,16.7,21.5,16.9,21.5z M17.8,27.2c2.5,0,4.9,0,7.4,0
		c2.1,0,4-0.7,5.5-2.2c1-0.9,2-1.9,2.9-2.9c0.5-0.5,1-1.1,1.3-1.8c1.5-3,1-6.2-1.2-8.7c-2-2.3-4.1-4.5-6.2-6.8
		c-0.1-0.1-0.1-0.1-0.2-0.2c-0.6-0.5-1.5-0.5-2.1,0.1c-0.6,0.5-0.6,1.4-0.1,2.1c0.1,0.1,0.2,0.2,0.3,0.4c0.2,0.3,0.2,0.6,0,0.9
		c-0.2,0.3-0.5,0.5-0.8,0.4c-0.2-0.1-0.5-0.2-0.6-0.4c-0.6-0.6-1.1-1.2-1.8-1.7c-0.6-0.5-1.5-0.5-2.1,0.1C19.5,7,19.4,7.9,20,8.6
		c0.3,0.3,0.6,0.6,0.8,0.9c0.4,0.4,0.7,0.7,1.1,1.1c0.3,0.3,0.2,0.8-0.1,1.1c-0.3,0.3-0.7,0.3-1.1,0.1c-0.1-0.1-0.2-0.2-0.3-0.3
		c-1.1-1.1-2.1-2.1-3.2-3.2c-0.7-0.7-1.6-0.7-2.2-0.2c-0.7,0.6-0.7,1.6,0,2.3c1.1,1.1,2.1,2.1,3.2,3.2c0.1,0.1,0.2,0.2,0.3,0.4
		c0.2,0.3,0.1,0.7-0.1,1c-0.3,0.3-0.7,0.3-1,0.1c-0.2-0.1-0.3-0.2-0.4-0.4c-2.7-2.7-5.3-5.3-8-8C8.8,6.6,8.7,6.5,8.6,6.4
		c-0.9-0.7-2.3-0.1-2.4,1C6,8.1,6.3,8.5,6.7,8.9c4.1,4.1,8.3,8.3,12.4,12.4c0.3,0.3,0.5,0.6,0.3,1c-0.1,0.4-0.5,0.6-0.9,0.6
		c-1.3,0.2-2.6,0.4-3.9,0.6c-1.5,0.2-3,0.5-4.6,0.7c-0.9,0.2-1.6,1-1.7,1.9c0,0.5,0.3,0.9,0.8,0.9c0.2,0,0.3,0,0.5,0
		C12.4,27.2,15.1,27.2,17.8,27.2z"/>
</g>
</svg>
