<?xml version="1.0" encoding="utf-8"?>
<!-- Generator: Adobe Illustrator 25.4.1, SVG Export Plug-In . SVG Version: 6.00 Build 0)  -->
<svg version="1.1" id="Capa_1" xmlns="http://www.w3.org/2000/svg" xmlns:xlink="http://www.w3.org/1999/xlink" x="0px" y="0px"
	 viewBox="0 0 28.4 29.3" style="enable-background:new 0 0 28.4 29.3;" xml:space="preserve">
<style type="text/css">
	.st0{fill:#8E694A;}
	.st1{fill:#FFFFFF;}
</style>
<g>
	<path class="st0" d="M4.6,29.3c-0.5-0.1-1-0.2-1.5-0.3c-1.5-0.5-2.6-1.3-3-2.9C0,25.4,0,24.6,0,23.9c0-0.3,0.3-0.6,0.6-0.6
		c0.3,0,0.6,0,0.8,0c0.3,0,0.4-0.1,0.4-0.4c0-0.1,0-0.1,0-0.2c0-5.1,0-10.2,0-15.4c0-0.5,0-0.5-0.5-0.6C0.6,6.8,0,6.1,0,5.3
		c0-1.3,0-2.5,0-3.8C0,0.7,0.7,0,1.5,0c0,0,0,0,0,0c8.1,0,16.2,0,24.3,0c0.9,0,1.6,0.7,1.6,1.6c0,1.2,0,2.5,0,3.7
		c0,0.9-0.7,1.6-1.6,1.6c-2.4,0-4.8,0-7.2,0c-0.4,0-0.5,0.1-0.5,0.5c0,0.8,0,1.6,0,2.4c0,0.4,0.1,0.5,0.5,0.5c0.5,0,1,0,1.6,0
		c0.3,0,0.4-0.1,0.4-0.4c0-0.3,0-0.5,0-0.8c0-0.4,0.2-0.7,0.6-0.7c2.2,0,4.3,0,6.5,0c0.4,0,0.7,0.3,0.7,0.7c0,0.9,0,1.8,0,2.7
		c0,0.4-0.3,0.7-0.7,0.7c-2.2,0-4.3,0-6.5,0c-0.4,0-0.6-0.2-0.7-0.6c0-0.3-0.2-0.4-0.4-0.4c-0.6,0-1.1,0-1.7,0
		c-0.3,0-0.4,0.1-0.4,0.4c0,0.2,0,0.5,0,0.7c0,0.6-0.2,0.8-0.8,0.8c-0.6,0-1.2,0-1.8,0c-1.8,0-3.5,0-5.3,0c-0.7,0-0.9-0.2-0.9-0.9
		c0-1.7,0-3.4,0-5.1c0-0.5-0.1-0.5-0.5-0.5c-1.7,0-3.5,0-5.2,0c-0.4,0-0.5,0.1-0.5,0.5c0,5.2,0,10.4,0,15.5c0,0.4,0.1,0.5,0.5,0.5
		c1.8,0,3.6,0,5.5,0c0.1,0,0.3-0.1,0.4-0.2c0-0.1,0-0.3-0.1-0.4c-0.9-1.1-1.4-2.4-1.6-3.8c-0.2-1.1-0.2-2.2-0.2-3.3
		c0-0.5,0.2-0.7,0.7-0.7c0.6,0,1.2,0,1.8,0c3,0,6.1,0,9.1,0c0.7,0,0.9,0.2,0.9,0.9c0,0.2,0,0.4,0,0.5c0,0.3,0.1,0.4,0.4,0.4
		c1.2,0,2.1,0.8,2.4,2c0.3,1.5-0.8,3-2.3,3c-0.4,0-0.9,0-1.3,0c-0.3,0-0.5,0.1-0.6,0.3c-0.1,0.2-0.3,0.4-0.4,0.6
		c-0.1,0.1-0.1,0.3-0.1,0.4c0,0.1,0.2,0.2,0.4,0.2c1,0,1.9,0,2.9,0c0.8,0,1.7,0,2.5,0c0.6,0,0.6,0,0.6-0.6c0-2.6,0-5.2,0-7.9
		c0-0.1,0-0.2,0-0.3c0-0.3,0.3-0.6,0.6-0.6c0.3,0,0.6,0.2,0.6,0.6c0,0.1,0,0.2,0,0.3c0,2.7,0,5.3,0,8c0,0.4,0.1,0.5,0.5,0.5
		c0.2,0,0.5,0,0.7,0c0.4,0,0.6,0.2,0.6,0.6c0,0.8,0,1.6-0.2,2.4c-0.5,1.5-1.5,2.3-3,2.7c-0.4,0.1-0.9,0.2-1.3,0.2
		C16.8,29.3,10.7,29.3,4.6,29.3z M13.7,1.3c-4,0-8,0-12,0c-0.4,0-0.5,0.1-0.5,0.5c0,1.1,0,2.3,0,3.4c0,0.4,0.1,0.5,0.5,0.5
		c8,0,16,0,23.9,0c0.4,0,0.5-0.1,0.5-0.5c0-1.1,0-2.2,0-3.3c0-0.5-0.1-0.5-0.5-0.5C21.7,1.3,17.7,1.3,13.7,1.3z M13.7,24.6
		c-2.2,0-4.4,0-6.6,0c-1.8,0-3.6,0-5.3,0c-0.4,0-0.5,0.1-0.5,0.5c0.1,1.1,0.6,2,1.7,2.4C3.7,27.9,4.5,28,5.3,28c5.6,0,11.3,0,16.9,0
		c0.6,0,1.2-0.1,1.7-0.2c1.4-0.4,2.1-1.3,2.3-2.6c0.1-0.5,0-0.6-0.5-0.6C21.7,24.6,17.7,24.6,13.7,24.6z M13.7,16.2
		c-1.5,0-3,0-4.5,0c-0.4,0-0.5,0.1-0.5,0.5c0,0.3,0,0.5,0.1,0.8c0.1,1.1,0.3,2.2,0.7,3.2c0.5,1.3,1.4,2.2,2.8,2.5
		c0.5,0.1,1.1,0.2,1.6,0.2c1.7,0,2.9-0.8,3.7-2.3c0.7-1.4,0.9-2.8,1-4.3c0-0.4-0.1-0.5-0.5-0.5C16.7,16.2,15.2,16.2,13.7,16.2z
		 M13.7,12.1c0.9,0,1.8,0,2.7,0c0.3,0,0.4-0.1,0.4-0.4c0-1.5,0-3,0-4.5c0-0.3-0.1-0.4-0.4-0.4c-1.8,0-3.6,0-5.3,0
		c-0.4,0-0.4,0.1-0.4,0.4c0,1.5,0,2.9,0,4.4c0,0.4,0.1,0.4,0.4,0.4C11.9,12.1,12.8,12.1,13.7,12.1z M24.5,9.7c-0.8,0-1.5,0-2.3,0
		c-0.3,0-0.4,0.1-0.4,0.4c0,0.3,0,0.6,0,0.8c0,0.2,0.1,0.3,0.4,0.3c1.5,0,3,0,4.6,0c0.2,0,0.4-0.1,0.4-0.4c0-0.3,0-0.5,0-0.8
		c0-0.3-0.1-0.4-0.4-0.4C26,9.7,25.2,9.7,24.5,9.7z M20.1,20.6C20.1,20.6,20.1,20.6,20.1,20.6c0.1,0,0.2,0,0.2,0
		c0.7,0,1.2-0.6,1.2-1.3c0-0.7-0.6-1.2-1.2-1.2c-0.4,0-0.5,0.1-0.5,0.4c-0.1,0.5-0.2,0.9-0.3,1.4c-0.1,0.6-0.1,0.7,0.5,0.7
		C20,20.6,20.1,20.6,20.1,20.6z"/>
	<path class="st0" d="M5.8,4.1c-0.4,0-0.9,0-1.3,0C4,4.1,3.7,3.8,3.7,3.4c0-0.4,0.3-0.6,0.7-0.6c0.9,0,1.8,0,2.7,0
		c0.4,0,0.7,0.3,0.7,0.6c0,0.4-0.3,0.6-0.7,0.6C6.7,4.1,6.2,4.1,5.8,4.1z"/>
	<path class="st0" d="M20.6,4.2c-0.4,0-0.8-0.3-0.8-0.8c0-0.4,0.3-0.8,0.8-0.8c0.4,0,0.8,0.3,0.8,0.8C21.3,3.9,21,4.2,20.6,4.2z"/>
	<path class="st0" d="M18.1,4.2c-0.4,0-0.8-0.3-0.8-0.8c0-0.4,0.3-0.8,0.8-0.8c0.4,0,0.8,0.3,0.8,0.8C18.8,3.9,18.5,4.2,18.1,4.2z"
		/>
	<path class="st0" d="M22.3,3.4c0-0.4,0.4-0.7,0.8-0.7c0.4,0,0.7,0.4,0.7,0.8c0,0.4-0.4,0.8-0.8,0.7C22.6,4.2,22.3,3.8,22.3,3.4z"/>
</g>
</svg>
