<?xml version="1.0" encoding="utf-8"?>
<!-- Generator: Adobe Illustrator 25.4.1, SVG Export Plug-In . SVG Version: 6.00 Build 0)  -->
<svg version="1.1" id="Capa_1" xmlns="http://www.w3.org/2000/svg" xmlns:xlink="http://www.w3.org/1999/xlink" x="0px" y="0px"
	 viewBox="0 0 40 28.1" style="enable-background:new 0 0 40 28.1;" xml:space="preserve">
<style type="text/css">
	.st0{fill:#8E694A;}
</style>
<g>
	<path class="st0" d="M40.1,10.4c-0.1,0.7-0.3,1.3-0.8,1.8c-0.6,0.8-1.4,1.3-2.4,1.3c-0.1,0-0.2,0-0.4,0.1c0,0.1,0,0.3,0,0.4
		c0,1.4,0,2.9,0,4.3c0,0.1,0,0.3,0,0.4c-0.1,0.4-0.4,0.6-0.7,0.6c-0.3,0-0.6-0.3-0.7-0.6c0-0.1,0-0.3,0-0.4c0-1.4,0-2.9,0-4.3
		c0-0.1,0-0.3,0-0.4c-0.6,0-1.2,0-1.8,0c0,4.3,0,8.6,0,12.9c0.6,0,1.2,0,1.8,0c0-0.1,0-0.3,0-0.4c0-1.2,0-2.3,0-3.5
		c0-0.2,0-0.3,0.1-0.5c0.1-0.3,0.3-0.5,0.7-0.5c0.3,0,0.6,0.2,0.7,0.5c0,0.1,0.1,0.3,0.1,0.5c0,1.5,0,3,0,4.4c0,0.7-0.2,1-1,1
		c-0.9,0-1.9,0-2.8,0c-0.7,0-1-0.3-1-1c0-2.3,0-4.6,0-6.9c0-0.4-0.1-0.6-0.5-0.8c-2.1-1-4.2-2-6.3-3.1c-1.6-0.8-3.2-1.6-4.8-2.4
		c-0.2-0.1-0.4-0.1-0.6,0c-3.7,1.8-7.4,3.6-11.1,5.4c-0.3,0.1-0.3,0.3-0.3,0.5c0,2.4,0,4.7,0,7.1c0,0.9-0.2,1.1-1.1,1.1
		c-0.9,0-1.7,0-2.6,0c-0.9,0-1.1-0.2-1.1-1.1c0-4.3,0-8.5,0-12.8c0-0.2,0-0.3,0-0.4c-0.6-0.2-1.2-0.4-1.8-0.6
		c-1.3-0.7-2-2.2-1.7-3.7C0.1,8,1.4,6.7,2.7,6.5c1.2-0.1,2.4-0.1,3.5-0.1c0.4,0,0.7,0.4,0.6,0.7c0,0.4-0.3,0.7-0.7,0.7
		c-0.9,0-1.8,0-2.6,0c-1.1,0-1.9,0.6-2.2,1.6C1,10.7,2,12,3.3,12.1c0.1,0,0.3,0,0.4,0c10.9,0,21.8,0,32.7,0c0.9,0,1.5-0.3,2-1
		c0.9-1.4-0.1-3.1-1.8-3.2c-0.1,0-0.3,0-0.4,0c-8.6,0-17.1,0-25.7,0c-0.2,0-0.3,0-0.5,0c-0.4,0-0.7-0.3-0.7-0.7
		c0-0.4,0.3-0.7,0.7-0.7c0.5,0,1,0,1.5,0c-0.2-0.5-0.5-1-0.6-1.5c-0.6-2.3,1.1-4.6,3.4-4.7c1.9-0.1,3.7,0,5.6,0c1.7,0,3.5,0,5.2,0
		c2.1,0,3.7,1.4,3.9,3.5c0.1,0.8-0.1,1.6-0.6,2.4c-0.1,0.1-0.1,0.2-0.2,0.3c0,0,0,0,0,0.1c0.1,0,0.3,0,0.4,0c2.6,0,5.2,0,7.7,0
		c1.5,0,2.7,0.7,3.4,2c0.2,0.3,0.2,0.7,0.4,1.1C40.1,9.8,40.1,10.1,40.1,10.4z M19.9,1.6c-1.7,0-3.5,0-5.2,0c-1.3,0-2.3,0.9-2.5,2.1
		c-0.1,1.5,0.9,2.7,2.5,2.7c1.2,0,2.4,0,3.6,0c2.3,0,4.5,0,6.8,0c1.4,0,2.4-0.9,2.5-2.2c0.1-1.5-0.9-2.6-2.5-2.6
		C23.3,1.6,21.6,1.6,19.9,1.6z M4.9,13.6c0,4.3,0,8.6,0,12.9c0.6,0,1.2,0,1.8,0c0-4.3,0-8.6,0-12.9C6.1,13.6,5.5,13.6,4.9,13.6z
		 M23.2,13.6C23.2,13.6,23.2,13.6,23.2,13.6c2.8,1.4,5.7,2.8,8.6,4.2c0-1.5,0-2.8,0-4.2C28.9,13.6,26.1,13.6,23.2,13.6z M8.2,17.7
		c2.8-1.4,5.6-2.7,8.3-4.1c0,0,0,0,0-0.1c-2.8,0-5.5,0-8.3,0C8.2,15,8.2,16.3,8.2,17.7z"/>
</g>
</svg>
