<?xml version="1.0" encoding="utf-8"?>
<!-- Generator: Adobe Illustrator 25.4.1, SVG Export Plug-In . SVG Version: 6.00 Build 0)  -->
<svg version="1.1" id="Capa_1" xmlns="http://www.w3.org/2000/svg" xmlns:xlink="http://www.w3.org/1999/xlink" x="0px" y="0px"
	 viewBox="0 0 31 31" style="enable-background:new 0 0 31 31;" xml:space="preserve">
<style type="text/css">
	.st0{fill:#8E694A;}
	.st1{fill:#FFFFFF;}
</style>
<g>
	<path class="st0" d="M0,24c0.3-0.5,0.6-0.9,0.9-1.4C1,22.5,1,22.3,1,22.1c0-1.8,0-3.5,0-5.3c0-0.7,0.2-1.3,0.7-1.8
		C1.2,14.5,1,13.9,1,13.1c0.1-0.5,0.3-1,0.7-1.3c0.8-0.7,2-0.6,2.8,0.1c0.8,0.8,0.8,1.9,0,3c0.2,0.4,0.5,0.9,0.7,1.3
		c0.3-0.4,0.6-0.9,0.9-1.4c0.1-0.1,0-0.2,0-0.3c0-1.8,0-3.5,0-5.3c0-1,0.1-1.2,0.7-2c-1.1-1.1-0.7-2.4,0-3c0.8-0.8,2-0.8,2.8,0
		c0.7,0.7,1,2,0,3c0.2,0.5,0.5,0.9,0.7,1.3c0.2-0.2,0.5-0.5,0.8-0.7c0.3-0.1,0.8-0.1,1.2-0.1c0-0.3,0-0.7,0-1
		c-0.1-1.4,0.4-2.5,1.6-3.2c-0.8-1.1-0.7-2.2,0.1-3c0.8-0.7,2-0.7,2.7,0c0.9,0.8,0.9,1.9,0.2,3c0.1,0.1,0.3,0.2,0.4,0.3
		c0.8,0.6,1.2,1.4,1.2,2.4c0,0.5,0,1,0,1.6c0.8-0.1,1.7-0.1,2,0.8c0.2-0.5,0.5-0.9,0.7-1.4c-1-1-0.7-2.3,0-3c0.8-0.8,2.1-0.8,2.9,0
		c0.7,0.7,1,2-0.1,3c0.6,0.5,0.7,1.2,0.7,2c0,1.7,0,3.4,0,5.1c0,0.3,0.1,0.6,0.3,0.8c0.3,0.4,0.5,0.7,0.7,1.1
		c0.2-0.4,0.4-0.8,0.7-1.3c-0.8-1.1-0.8-2.2,0.1-3c0.8-0.7,2-0.7,2.8,0.1c0.9,0.8,0.8,2-0.1,3.1c0.7,0.6,0.7,1.4,0.7,2.2
		c0,1.7,0,3.3,0,5c0,0.2,0.1,0.3,0.1,0.5c1.1,1.6,0.9,1,0.9,2.9c0,0.2,0,0.5,0,0.7c0,0.7-0.4,1.1-1.1,1.1c-0.1,0-0.3,0-0.4,0
		c0,0.1,0,0.2,0,0.3c0,0.7,0,1.3,0,2c0,0.6-0.2,1.1-0.8,1.3c-0.8,0-1.7,0-2.5,0c-0.6-0.2-0.8-0.7-0.8-1.3c0-0.4,0-0.8,0-1.2
		c0-0.4,0-0.7,0-1.1c-1.7,0-3.4,0-5.2,0c0,0.1,0,0.2,0,0.3c0,0.5,0,1,0,1.5c0,1-0.3,1.4-1.3,1.8c-2.3,0-4.5,0-6.8,0
		c-1-0.4-1.3-0.8-1.3-1.9c0-0.5,0-0.9,0-1.4c0-0.1,0-0.2,0-0.2c-1.7,0-3.4,0-5.1,0c0,0.8,0,1.5,0,2.3c0,0.6-0.2,1.1-0.8,1.3
		c-0.8,0-1.7,0-2.5,0c-0.6-0.2-0.8-0.7-0.8-1.3c0-0.7,0-1.3,0-2c0-0.1,0-0.2,0-0.4c-0.7,0.1-1.3-0.1-1.5-0.8C0,25.7,0,24.8,0,24z
		 M1.1,24.2c3.3,0,6.5,0,9.8,0c-0.1-2.2,0.8-3.7,2.8-4.7c-0.7-0.6-1.2-1.4-1.2-2.3c0-1,0.3-1.8,1-2.4c1.2-1.1,3-1.1,4.2,0
		c0.6,0.5,0.9,1.2,1,2c0.1,1.1-0.3,2-1.2,2.7c2,1,2.8,2.6,2.8,4.7c3.3,0,6.5,0,9.7,0c-0.1-0.1-0.1-0.1-0.1-0.2C26.4,19,23,14,19.6,9
		c-0.1-0.2-0.2-0.2-0.4-0.2c-2.5,0-4.9,0-7.4,0c-0.2,0-0.4,0.1-0.5,0.3C8,14,4.6,19,1.2,23.9C1.2,24,1.1,24.1,1.1,24.2z M17,29.9
		c0-0.1,0-0.3,0-0.4c0-1.3,0-2.7,0-4c0-0.1,0-0.2,0-0.3c0-0.3,0.2-0.4,0.5-0.4c0.3,0,0.4,0.1,0.5,0.4c0,0.1,0,0.2,0,0.4
		c0,1.4,0,2.7,0,4.1c0,0.1,0,0.2,0,0.3c0.8,0.1,1-0.1,1-0.8c0-1.7,0-3.4,0-5.1c0-0.3,0-0.5,0-0.8c-0.2-1.7-1.8-3.1-3.6-3.1
		c-1.8,0-3.4,1.4-3.6,3.1c0,0.2,0,0.5,0,0.7c0,1.8,0,3.5,0,5.3c0,0.6,0.2,0.7,0.7,0.7c0.1,0,0.2,0,0.3,0c0-0.5,0-1.1,0-1.6
		c0-1,0-2,0-2.9c0-0.4,0.2-0.7,0.6-0.6c0.3,0,0.4,0.2,0.4,0.6c0,1.4,0,2.8,0,4.1c0,0.1,0,0.2,0,0.4c0.1,0,0.1,0,0.2,0
		C15.1,29.9,16,29.9,17,29.9z M17.5,17.1c0-1.2-0.9-2.1-2.1-2.1c-1.1,0-2,0.9-2.1,2c0,1.2,0.9,2.1,2,2.1
		C16.6,19.1,17.5,18.2,17.5,17.1z M13.5,7.7c1.3,0,2.7,0,4.1,0c0-0.5,0-1.1,0-1.6c0-1.1-0.8-1.9-1.9-2c-1-0.1-2,0.6-2.1,1.6
		C13.4,6.4,13.5,7,13.5,7.7z M1.1,25.3c0,0.3,0,0.7,0,1c3.3,0,6.5,0,9.8,0c0-0.3,0-0.7,0-1C7.6,25.3,4.3,25.3,1.1,25.3z M20.1,26.3
		c3.3,0,6.5,0,9.8,0c0-0.3,0-0.7,0-1c-3.3,0-6.5,0-9.8,0C20.1,25.6,20.1,25.9,20.1,26.3z M7.2,13.2C7.3,13.1,7.3,13.1,7.2,13.2
		c0.7-1,1.3-1.9,2-2.9c0,0,0.1-0.1,0.1-0.2c0-0.5,0-1.1,0-1.6c-0.1-0.5-0.5-0.8-1-0.8c-0.5,0-0.9,0.3-1,0.8c0,0.1,0,0.3,0,0.5
		c0,1.3,0,2.6,0,3.9C7.2,12.9,7.2,13,7.2,13.2z M23.7,13.1C23.7,13.1,23.7,13.1,23.7,13.1c0.1-0.1,0.1-0.2,0.1-0.3
		c0-1.3,0-2.5,0-3.8c0-0.1,0-0.3,0-0.4c-0.1-0.4-0.4-0.8-0.8-0.9c-0.4-0.1-0.9,0.1-1.1,0.5c-0.3,0.6-0.2,1.3-0.1,2c0,0,0,0,0,0
		C22.4,11.2,23,12.2,23.7,13.1z M2.1,20.8c0.1-0.1,0.1-0.1,0.1-0.1c0.6-0.9,1.3-1.8,1.9-2.8c0-0.1,0.1-0.2,0.1-0.3
		c0-0.4,0-0.8,0-1.2c0-0.6-0.5-1-1-1c-0.6,0-1,0.4-1,1C2.1,17.9,2.1,19.3,2.1,20.8z M28.8,20.8C28.9,20.8,28.9,20.7,28.8,20.8
		c0.1-1.5,0.1-2.9,0-4.3c0-0.6-0.5-1-1.1-1c-0.6,0-1,0.4-1,1c0,0.4,0,0.8,0,1.1c0,0.1,0.1,0.3,0.1,0.4c0.6,0.8,1.1,1.7,1.7,2.5
		C28.7,20.6,28.8,20.7,28.8,20.8z M4.6,27.4c-0.7,0-1.4,0-2,0c0,0.9,0,1.7,0,2.5c0.7,0,1.4,0,2,0C4.6,29,4.6,28.2,4.6,27.4z
		 M28.4,29.9c0-0.9,0-1.7,0-2.6c-0.7,0-1.4,0-2,0c0,0.9,0,1.7,0,2.6C27,29.9,27.7,29.9,28.4,29.9z M4.1,13.4c0-0.6-0.4-1-1-1
		c-0.6,0-1,0.5-1,1c0,0.6,0.5,1,1,1C3.7,14.5,4.1,14,4.1,13.4z M16.5,2.1c0-0.6-0.5-1-1-1c-0.6,0-1,0.5-1,1c0,0.6,0.4,1,1,1
		C16,3.1,16.5,2.7,16.5,2.1z M27.9,12.4c-0.6,0-1,0.4-1,1c0,0.6,0.4,1,1,1c0.6,0,1-0.5,1.1-1C28.9,12.9,28.4,12.4,27.9,12.4z
		 M8.2,4.7c-0.6,0-1,0.5-1,1c0,0.6,0.5,1,1,1c0.6,0,1-0.5,1-1C9.3,5.1,8.8,4.7,8.2,4.7z M22.7,4.7c-0.6,0-1,0.5-1,1c0,0.6,0.5,1,1,1
		c0.6,0,1-0.5,1-1C23.7,5.1,23.3,4.7,22.7,4.7z"/>
</g>
</svg>
