<?xml version="1.0" encoding="utf-8"?>
<!-- Generator: Adobe Illustrator 25.4.1, SVG Export Plug-In . SVG Version: 6.00 Build 0)  -->
<svg version="1.1" id="Capa_1" xmlns="http://www.w3.org/2000/svg" xmlns:xlink="http://www.w3.org/1999/xlink" x="0px" y="0px"
	 viewBox="0 0 210.1 171.9" style="enable-background:new 0 0 210.1 171.9;" xml:space="preserve">
<style type="text/css">
	.st0{fill:#8E694A;}
</style>
<g>
	<path class="st0" d="M200.1,53.1c-2.2-1.1-4.6-2-6.5-3.5c-15.5-12-32.5-20.9-51.4-25.6C96.4,12.5,54.6,21.1,16.9,49.5
		c-5,3.7-9.6,4.1-13.4,0.9c-4.7-4-4.6-11,0.4-15c9.6-7.7,20.1-14.2,31.2-19.5C52.9,7.4,71.7,2.1,91.4,0.5
		c38.4-3,73.6,6.4,105.5,27.9c3.4,2.3,6.7,4.8,9.9,7.4c3.2,2.6,4.1,6.8,2.7,10.6c-1.4,3.8-5,6.2-9,6.2
		C200.3,52.8,200.2,53,200.1,53.1z"/>
	<path class="st0" d="M107.8,42.9c24.8,0.3,49.4,9.1,70.8,26.8c3.1,2.5,4.5,5.7,3.6,9.7c-0.8,3.8-3.2,6.2-6.9,7.2
		c-3.4,0.9-6.4-0.1-9.1-2.4c-11.9-9.9-25.4-16.7-40.5-19.8C96,58.2,69.3,64.6,45.4,83c-2.2,1.7-4.2,3.6-7.2,3.8
		c-4.3,0.4-8.1-1.8-9.8-5.7c-1.7-3.9-1-8.4,2.7-11.1c6.5-4.7,13-9.6,20-13.5C67.8,47.4,85.8,43,107.8,42.9z"/>
	<path class="st0" d="M105.1,85.9c17.7,0.4,33.1,6.4,46,18.5c4.5,4.2,4.8,10,0.9,14.1c-3.8,3.9-9.6,3.9-14-0.2
		c-19-17.7-46.9-17.6-66,0.1c-4.3,4-10.2,4-14,0c-3.8-4-3.5-9.8,0.9-13.9C71.9,92.3,87.4,86.2,105.1,85.9z"/>
	<path class="st0" d="M105,133.7c10.5,0,19.1,8.4,19.2,18.9c0.1,10.5-8.6,19.2-19.2,19.2c-10.5,0-19.1-8.6-19.1-19.1
		C85.9,142.3,94.5,133.8,105,133.7z"/>
</g>
</svg>
