<?xml version="1.0" encoding="utf-8"?>
<!-- Generator: Adobe Illustrator 25.4.1, SVG Export Plug-In . SVG Version: 6.00 Build 0)  -->
<svg version="1.1" id="Capa_1" xmlns="http://www.w3.org/2000/svg" xmlns:xlink="http://www.w3.org/1999/xlink" x="0px" y="0px"
	 viewBox="0 0 40 40" style="enable-background:new 0 0 40 40;" xml:space="preserve">
<style type="text/css">
	.st0{fill:#8E694A;}
</style>
<g>
	<path class="st0" d="M10.8,31.3c0.1,1.1,0.1,2.2-0.2,3.3c-0.1,0.5-0.3,1-0.5,1.5c-0.2,0.7-0.4,1.3-0.6,2c-0.3,1-1.1,1.7-2.1,1.7
		c-0.8,0-1.7,0-2.5,0c-0.7,0-1.3-0.4-1.4-1.1c-0.1-0.6,0.2-1.2,0.8-1.5c0,0,0.1,0,0.1-0.1c0.9-0.2,1.2-0.9,1.2-1.8
		c0.1-1.8,0.3-3.5,0.5-5.3c0.2-1.9,1.4-3.1,3.3-3.3c1.6-0.2,3.3-0.5,4.9-0.7c0.2,0,0.3-0.1,0.4-0.4c0.1-1.4,0.2-2.7,0.3-4.1
		c0-0.6,0-1.3,0.1-1.9c0-0.4,0-0.7-0.2-1c-0.7-1.3-0.1-2.8,1.2-3.4c0.6-0.3,1.3-0.6,2-0.9c0.3-0.1,0.3-0.2,0.3-0.5
		c-0.2-1.3-0.3-2.5-0.5-3.8c-0.1-0.9-0.1-1.8,0.2-2.6c0.1-0.4,0.2-0.7,0.3-1.1c0.5-1.5,0.8-3,0.7-4.6c0-0.5,0.2-0.7,0.6-0.9
		c0.4-0.1,0.7-0.3,1.1-0.5c0.4-0.2,0.7-0.1,0.9,0.3c0.4,0.7,0.7,1.4,1.1,2c0.1,0.2,0.1,0.4,0.1,0.5c-0.3,1.7-0.6,3.4-1,5.2
		c-0.1,0.3-0.1,0.7,0.1,1c0.2,0.4,0.3,0.8,0.5,1.2c0.1,0.1,0.2,0.2,0.4,0.2c0.4,0.1,0.8,0,1.3,0.1c1.5,0.3,2.6,1.7,2.5,3.3
		c0,0.3,0.1,0.4,0.3,0.5c1.1,0.5,1.6,1.7,1.1,2.8c-0.5,1-0.6,2-0.6,3.1c0,0.1,0,0.2,0,0.3c0,0.3-0.1,0.6-0.4,0.7
		c-0.3,0.1-0.6,0-0.8-0.2c-0.9-0.9-1.5-2-1.7-3.3c-0.1-0.4-0.1-0.7-0.1-1c-0.6-0.1-1.2-0.1-1.8-0.2c-0.3,0.7-0.6,1.5-0.9,2.3
		c-0.4,1.2-0.9,2.5-1.2,3.7c-0.3,0.9-0.2,0.9,0.6,1.4c1.6,1,2.9,2.3,4.2,3.6c0.6,0.6,1.2,1.2,1.8,1.8c0.2,0.3,0.5,0.4,0.9,0.5
		c1.6,0.4,3.2,0.9,4.4,2.1c1.2,1.1,2.4,2.3,3.6,3.5c0.9,0.9,0.7,2.3-0.3,2.9c-0.6,0.4-1.1,0.7-1.7,1c-0.1,0.1-0.3,0.1-0.5,0.1
		c-0.6,0-1.2,0-1.8,0c-0.3,0-0.6-0.1-0.8-0.4c-0.4-0.6-0.4-1.5,0.1-2.1c0.1-0.1,0.2-0.2,0.3-0.3c-1.2-0.5-2.3-0.9-3.5-1.3
		c-2.6-0.9-4.8-2.4-7-3.9c-0.7-0.5-1.3-0.9-2-1.4c-0.1-0.1-0.3-0.2-0.5-0.1c-2,0.7-4,0.7-6,0.9C11.7,31.2,11.3,31.2,10.8,31.3z
		 M19.7,25c-1.2,1.2-2.7,1.8-4.3,2.1c-1.9,0.3-3.9,0.6-5.8,0.9c-1.3,0.2-2.1,1-2.2,2.3c-0.1,1.3-0.3,2.5-0.4,3.8
		c-0.1,0.7-0.1,1.4-0.2,2.2c0.6,0,1.1,0,1.7,0c0.1,0,0.2-0.1,0.2-0.2c0.7-1.7,1.2-3.4,0.7-5.2c-0.2-0.6,0.1-0.9,0.7-0.9
		c1.7-0.1,3.4-0.3,5.2-0.4c0.6-0.1,1.3-0.2,2-0.4c-0.4-0.4-0.7-0.7-1-1c-0.3-0.3-0.3-0.7,0-0.9c0.2-0.2,0.6-0.3,0.9,0
		c0.1,0.1,0.2,0.2,0.3,0.3c0.8,0.8,1.6,1.5,2.5,2.2c1.7,1.1,3.2,2.4,5,3.2c2.4,1.2,4.9,2,7.3,3c0.1,0,0.2,0,0.3,0
		c0.3-0.2,0.7-0.5,0.8-0.6c-0.5-0.6-1.1-1.2-1.6-1.8c-0.8-0.9-1.8-1.4-2.9-1.8c-0.6-0.2-1.2-0.4-1.8-0.5c-0.4-0.1-0.7-0.3-1-0.5
		c-1.1-1.1-2.2-2.2-3.3-3.2C22,26.6,21,25.8,19.7,25z M20.9,17.6c0.3-0.8,0.6-1.5,0.9-2.2c0.4-1.2,0.4-2.5-0.1-3.7
		c-0.3-0.8-0.7-1.6-1-2.3c-0.1-0.2-0.1-0.5-0.1-0.7c0.3-1.8,0.7-3.5,1-5.3c0-0.2,0-0.3,0-0.5c-0.2-0.4-0.4-0.8-0.6-1.2
		c-0.4,0-0.5,0.2-0.5,0.5c0.1,1.3-0.2,2.6-0.6,3.9c-0.2,0.5-0.3,1-0.4,1.4c-0.1,0.5-0.3,1.1-0.2,1.6c0.1,1.3,0.3,2.7,0.5,4
		c0.1-0.1,0.2-0.1,0.2-0.1c0.4-0.2,0.7-0.2,0.9,0.1c0.2,0.3,0.2,0.7-0.1,1c-0.2,0.2-0.4,0.3-0.6,0.5c-0.1,0.1-0.2,0.2-0.2,0.3
		C19.9,15.9,20.2,16.8,20.9,17.6z M16.4,19.7c0.9,0.1,1.7,0.3,2.6,0.4c0.9,0.1,0.9,0.1,1.3-0.8c0.1-0.2,0.1-0.4-0.1-0.6
		c-0.7-0.8-1.2-1.7-1.5-2.7c0-0.2-0.1-0.3-0.1-0.5c-0.1,0-0.1,0-0.1,0c-0.6,0.2-1.1,0.5-1.7,0.7c-0.8,0.4-1,1.3-0.5,2
		c0.2,0.3,0.3,0.5,0.2,0.9C16.4,19.3,16.4,19.4,16.4,19.7z M16.1,25.6c1.1-0.3,2-0.8,2.8-1.6c0,0,0.1-0.1,0.1-0.2
		c0.1-0.8,0.2-1.6,0.4-2.4c-1-0.1-2-0.3-3-0.4C16.3,22.5,16.2,24,16.1,25.6z M23.1,15.5c0.6,0.4,1.5,0.2,1.9-0.5
		c0.5-0.8,0.4-1.8-0.3-2.4c0.1,1.1-0.7,1-1.3,1.2C23.3,14.4,23.2,15,23.1,15.5z M34.7,36.4c-0.9,0.6-1.8,1.1-2.6,1.7
		c-0.1,0.1-0.2,0.2-0.4,0.4c0.9,0,1.7,0.2,2.4-0.4c0.2-0.1,0.4-0.2,0.6-0.3C35.4,37.3,35.4,36.9,34.7,36.4z M26.2,15.8
		c-0.5,0.3-0.6,0.7-0.5,1.3c0,0.2,0,0.3,0.1,0.5c0.1,0.5,0.2,0.9,0.4,1.4c0.2-0.7,0.4-1.3,0.7-1.9C27,16.4,26.8,15.9,26.2,15.8z
		 M4.8,38.5c1,0,1.9,0,2.9,0c0.4,0,0.6-0.4,0.6-0.8C7,37.5,5.8,37.6,4.8,38.5z"/>
</g>
</svg>
