<?xml version="1.0" encoding="utf-8"?>
<!-- Generator: Adobe Illustrator 25.4.1, SVG Export Plug-In . SVG Version: 6.00 Build 0)  -->
<svg version="1.1" id="Capa_1" xmlns="http://www.w3.org/2000/svg" xmlns:xlink="http://www.w3.org/1999/xlink" x="0px" y="0px"
	 viewBox="0 0 28.8 28.8" style="enable-background:new 0 0 28.8 28.8;" xml:space="preserve">
<style type="text/css">
	.st0{fill:#8E694A;}
	.st1{fill:#FFFFFF;}
</style>
<g>
	<path class="st0" d="M24,21c0,2.2,0,4.4,0,6.6c0.1,0,0.2,0,0.3,0c0.5,0,1,0,1.4,0c0.4,0,0.6,0.3,0.6,0.6c0,0.3-0.3,0.6-0.6,0.6
		c-1.6,0-3.1,0-4.7,0c-0.4,0-0.6-0.3-0.6-0.6c0-0.3,0.2-0.6,0.6-0.6c0.5,0,0.9,0,1.4,0c0.1,0,0.2,0,0.3,0c0-2.2,0-4.4,0-6.6
		c-0.4-0.1-0.8-0.2-1.2-0.3c-2.4-0.9-3.8-3.1-3.6-5.8c0.3-2.8,1-5.5,2.1-8C20.5,5.9,21,5,21.8,4.3c1-0.9,2.1-1,3.1,0
		c0.8,0.8,1.4,1.7,1.8,2.8c1.1,2.6,1.8,5.3,2,8.1c0.2,2.8-1.8,5.3-4.6,5.8C24.1,20.9,24,20.9,24,21z M24,19.7c0.1,0,0.2,0,0.3,0
		c2.1-0.4,3.5-2.4,3.4-4.5c-0.2-2.8-1-5.5-2.2-8.1c-0.3-0.7-0.7-1.3-1.2-1.9c-0.5-0.5-1-0.5-1.6,0c-0.3,0.4-0.7,0.8-0.9,1.2
		c-1.4,2.8-2.3,5.7-2.5,8.9C19,16.9,19.7,18.1,21,19c0.5,0.4,1.1,0.6,1.8,0.7c0-0.2,0-0.3,0-0.5c0-0.3-0.1-0.5-0.3-0.7
		c-0.3-0.2-0.5-0.5-0.8-0.8c-0.4-0.4-0.8-0.8-1.1-1.2c-0.3-0.3-0.2-0.6,0-0.9c0.2-0.2,0.6-0.2,0.8,0c0.2,0.1,0.3,0.3,0.4,0.4
		c0.3,0.3,0.6,0.6,0.9,0.9c0.1,0,0.1-0.1,0.1-0.1c0-0.3,0-0.5,0-0.8c0-0.4,0.3-0.6,0.6-0.6c0.3,0,0.6,0.3,0.6,0.6c0,0.3,0,0.6,0,0.9
		c0.1-0.1,0.2-0.2,0.3-0.2c0.4-0.4,0.7-0.7,1.1-1.1c0.2-0.2,0.4-0.2,0.7-0.2c0.2,0.1,0.4,0.3,0.4,0.5c0,0.2-0.1,0.4-0.3,0.6
		c-0.6,0.7-1.3,1.3-2,2c-0.1,0.1-0.2,0.2-0.2,0.3C23.9,19.2,24,19.4,24,19.7z"/>
	<path class="st0" d="M9.8,25.5c0.7,0.7,1.4,1.4,2.2,2.1c0.1,0.1,0.2,0.2,0.2,0.3c0.1,0.3,0,0.5-0.2,0.7c-0.2,0.1-0.5,0.1-0.7,0
		c-0.1-0.1-0.2-0.1-0.2-0.2C10.4,27.7,9.7,27,9,26.3c-0.1,0.1-0.2,0.1-0.2,0.2c-0.7,0.7-1.3,1.3-2,2c-0.3,0.3-0.7,0.3-0.9,0.1
		c-0.2-0.3-0.2-0.6,0.1-0.9c0.7-0.7,1.5-1.4,2.2-2.2c-0.1-0.1-0.1-0.2-0.2-0.2c-0.8-0.8-1.5-1.5-2.3-2.3c-0.1-0.1-0.3-0.2-0.5-0.2
		c-0.4,0-0.9,0-1.3,0c-0.9-0.1-1.5-1-1.5-1.9c0.1-0.9,0.8-1.6,1.8-1.6c3.2,0,6.4,0,9.6,0c1,0,1.8,0.8,1.8,1.8c0,1-0.8,1.8-1.8,1.8
		c-0.4,0-0.7,0-1.1,0c-0.1,0-0.2,0-0.3,0.1C11.6,23.7,10.7,24.6,9.8,25.5C9.9,25.5,9.9,25.5,9.8,25.5z M9,21.6c1.1,0,2.2,0,3.4,0
		c0.5,0,1,0,1.5,0c0.3,0,0.6-0.3,0.6-0.6c0-0.3-0.2-0.5-0.5-0.6c-0.1,0-0.2,0-0.3,0c-3,0-6.1,0-9.1,0c-0.1,0-0.2,0-0.3,0
		c-0.3,0.1-0.5,0.3-0.5,0.6c0,0.3,0.3,0.6,0.7,0.6C5.8,21.6,7.4,21.6,9,21.6z M9,24.5c0.6-0.6,1.2-1.2,1.7-1.7c-1.1,0-2.3,0-3.5,0
		C7.8,23.4,8.4,24,9,24.5z"/>
	<path class="st0" d="M3.4,7C3.3,6.1,3.6,5.3,4.2,4.7c0.6-0.6,1.3-0.8,2-0.8c0.2,0,0.3,0,0.4-0.2C7.5,2.1,9.3,1.3,11,1.9
		c1.7,0.5,2.8,2.2,2.6,4c0,0.2,0.1,0.2,0.2,0.3c1.2,0.6,1.9,1.9,1.7,3.2c-0.2,1.3-1.2,2.3-2.5,2.6c-0.2,0-0.5,0.1-0.7,0.1
		c-2.8,0-5.7,0-8.5,0c-1.4,0-2.4-0.9-2.6-2.1C1,8.6,1.9,7.4,3.1,7.1C3.2,7.1,3.3,7.1,3.4,7z M8.1,10.8c1.5,0,2.9,0,4.4,0
		c1.2,0,2.1-1.1,1.9-2.3c-0.2-0.8-0.7-1.3-1.4-1.5c-0.5-0.1-0.6-0.4-0.5-0.9c0-0.1,0-0.1,0-0.2c0.3-1.3-0.5-2.6-1.8-3
		C9.3,2.6,8,3.3,7.5,4.6c-0.2,0.6-0.4,0.7-1,0.5C6,5,5.4,5.2,5,5.6c-0.4,0.5-0.5,1-0.3,1.6c0.2,0.6,0,1-0.7,1c-0.2,0-0.5,0-0.7,0.1
		c-0.6,0.2-1,0.8-0.9,1.4c0.1,0.6,0.6,1.1,1.3,1.1C5.2,10.8,6.6,10.8,8.1,10.8z"/>
	<path class="st0" d="M16.8,25.2c-0.8,0-1.6,0-2.4,0c0,0.1,0,0.2,0,0.3c0,0.8,0,1.6,0,2.5c0,0.1,0,0.1,0,0.2c0,0.4-0.3,0.6-0.6,0.6
		c-0.3,0-0.6-0.2-0.6-0.6c0-1,0-2,0-3c0-0.7,0.5-1.2,1.3-1.2c0.7,0,1.3,0,2,0c0.1,0,0.2,0,0.4,0c0-0.1,0-0.2,0-0.4
		c0-1.6,0-3.2,0-4.8c0-0.1,0-0.2,0-0.3c0.1-0.3,0.3-0.5,0.6-0.5c0.3,0,0.5,0.2,0.6,0.5c0,0.1,0,0.2,0,0.3c0,3,0,6.1,0,9.1
		c0,0.1,0,0.2,0,0.2c0,0.4-0.3,0.6-0.6,0.6c-0.3,0-0.6-0.3-0.6-0.6c0-0.6,0-1.3,0-1.9C16.8,25.9,16.8,25.5,16.8,25.2z"/>
	<path class="st0" d="M1.2,24c0.4,0,0.7,0,1,0c0.5,0,1,0,1.5,0c0.7,0,1.1,0.5,1.1,1.2c0,1,0,2,0,3c0,0.4-0.2,0.6-0.6,0.6
		c-0.4,0-0.6-0.2-0.6-0.6c0-0.9,0-1.7,0-2.6c0-0.1,0-0.2,0-0.4c-0.8,0-1.6,0-2.4,0c0,0.1,0,0.2,0,0.3c0,0.9,0,1.7,0,2.6
		c0,0.4-0.2,0.7-0.6,0.7c-0.4,0-0.6-0.3-0.6-0.7c0-3.1,0-6.3,0-9.4C0,18.3,0.2,18,0.6,18c0.4,0,0.6,0.3,0.6,0.7c0,1.6,0,3.3,0,4.9
		C1.2,23.7,1.2,23.8,1.2,24z"/>
	<path class="st0" d="M0,3.9c0.1-1.5,0.9-2.9,2.5-3.6C4.2-0.3,5.7,0,7,1.1c0.2,0.2,0.3,0.3,0.3,0.6C7.3,2.2,6.8,2.4,6.4,2.2
		C6.3,2.1,6.2,2,6,1.9C4.8,0.9,3.2,1,2.1,2.1C1,3.1,0.9,4.8,1.8,6C1.9,6.1,1.9,6.1,2,6.2C2.2,6.5,2.1,6.8,1.9,7
		C1.6,7.2,1.3,7.2,1,6.9C0.4,6.1,0,5.2,0,3.9z"/>
</g>
</svg>
