<?xml version="1.0" standalone="no"?>
<!DOCTYPE svg PUBLIC "-//W3C//DTD SVG 20010904//EN"
 "http://www.w3.org/TR/2001/REC-SVG-20010904/DTD/svg10.dtd">
<svg version="1.0" xmlns="http://www.w3.org/2000/svg"
 width="113.000000pt" height="113.000000pt" viewBox="0 0 113.000000 113.000000"
 preserveAspectRatio="xMidYMid meet">
<metadata>
Created by potrace 1.14, written by Peter Selinger 2001-2017
</metadata>
<g transform="translate(0.000000,113.000000) scale(0.100000,-0.100000)"
fill="#000000" stroke="none">
<path d="M435 1088 c-43 -24 -48 -69 -11 -93 30 -20 66 -6 66 25 0 24 -15 33
-28 17 -10 -11 -12 -18 -12 -33 0 -4 -7 -1 -15 6 -26 22 -14 58 23 65 29 5 61
-36 54 -70 -7 -38 -51 -57 -125 -54 -75 2 -80 5 -66 30 8 16 7 26 -6 45 -26
40 -75 26 -75 -22 0 -26 34 -38 51 -18 16 19 3 30 -16 14 -12 -10 -15 -10 -15
3 0 22 18 31 35 17 19 -16 19 -25 -1 -44 -11 -12 -30 -15 -72 -12 -97 6 -168
-33 -197 -107 -14 -36 -15 -51 -5 -86 22 -81 103 -137 175 -121 30 7 33 6 30
-16 -1 -13 6 -32 17 -44 18 -20 18 -20 -3 -49 -12 -16 -19 -33 -16 -38 3 -5
-18 -9 -48 -9 -43 0 -60 -6 -90 -28 -98 -75 -90 -206 16 -265 34 -20 56 -24
115 -23 45 1 76 -3 80 -10 5 -8 2 -9 -9 -5 -43 16 -68 -41 -27 -63 40 -22 83
27 60 70 -10 19 -8 20 42 21 78 2 101 -1 124 -16 27 -17 35 -47 20 -77 -23
-46 -97 -27 -81 22 8 24 37 27 33 3 -2 -10 4 -19 15 -21 11 -2 17 3 17 16 0
50 -74 54 -86 5 -13 -52 39 -92 88 -67 29 15 37 27 42 61 2 12 11 18 27 18 18
0 28 -9 41 -38 17 -38 50 -59 78 -49 49 17 65 65 32 95 -22 20 -43 22 -60 5
-19 -19 -15 -50 6 -46 9 2 16 12 16 21 -2 21 15 18 30 -5 14 -23 -11 -50 -43
-46 -29 3 -51 39 -44 69 11 41 50 54 155 50 46 -1 47 -2 38 -26 -12 -31 -3
-54 24 -65 29 -11 56 6 56 34 0 28 -26 41 -48 24 -13 -11 -14 -10 -10 2 3 11
23 15 80 17 91 1 146 26 179 80 62 99 -12 235 -127 237 -38 1 -48 5 -50 19 -1
10 -10 27 -20 38 -17 18 -17 20 1 33 10 7 19 24 20 37 1 21 7 24 43 25 23 1
42 -2 42 -6 0 -9 -31 -24 -42 -22 -16 4 -7 -51 13 -79 25 -35 40 -36 76 -4 23
20 25 24 10 25 -16 0 -16 2 -2 24 15 23 15 24 -15 34 -39 14 -38 24 5 56 95
72 92 198 -5 263 -34 22 -53 26 -118 28 -96 3 -92 3 -92 17 0 9 3 9 11 1 17
-17 49 -3 49 21 0 48 -49 62 -75 22 -12 -19 -14 -30 -6 -44 15 -28 6 -32 -67
-32 -83 0 -122 21 -122 67 0 36 30 64 60 56 24 -6 35 -39 20 -58 -17 -20 -32
-19 -28 2 2 10 -4 19 -14 21 -26 5 -23 -34 3 -48 41 -22 88 36 61 76 -35 53
-124 24 -124 -40 0 -20 -6 -25 -34 -28 -30 -4 -32 -2 -32 25 2 48 -57 88 -97
65z m435 -72 c0 -8 -9 -13 -24 -12 -18 1 -22 4 -14 14 14 16 38 15 38 -2z
m-67 -274 c48 -50 87 -97 87 -105 0 -7 -6 -22 -14 -32 -13 -18 -20 -13 -108
80 -52 55 -110 117 -129 137 -19 21 -47 40 -62 44 -30 7 -26 10 -210 -188 -45
-49 -85 -88 -89 -88 -4 0 -12 9 -18 21 -9 16 -8 25 3 42 14 22 127 144 245
267 l63 65 72 -75 c40 -42 111 -117 160 -168z m-537 199 c18 -1 21 -7 20 -37
-1 -26 5 -40 20 -50 19 -13 24 -12 45 5 20 16 22 23 13 38 -15 24 -48 23 -53
-2 -3 -16 -1 -17 12 -7 9 8 18 9 21 3 8 -13 -11 -24 -29 -17 -24 9 -18 45 8
51 33 7 157 11 157 5 0 -3 -8 -13 -17 -21 -10 -9 -51 -50 -91 -92 -40 -43 -75
-77 -77 -77 -3 0 -5 8 -5 18 0 27 -52 72 -84 72 -38 0 -78 -42 -72 -76 9 -47
60 -69 90 -38 20 20 20 48 1 64 -13 10 -18 11 -28 1 -9 -10 -8 -16 8 -27 17
-13 18 -16 5 -24 -21 -13 -26 -12 -44 6 -20 19 -20 24 0 52 19 28 53 28 82 2
40 -37 23 -88 -38 -113 -93 -40 -198 62 -170 164 18 64 89 108 167 103 21 -1
48 -2 59 -3z m756 -18 c104 -61 91 -209 -22 -251 -54 -20 -140 26 -140 75 0
53 70 82 104 44 31 -34 -6 -88 -40 -60 -12 10 -11 14 3 25 14 10 15 15 6 25
-16 16 -43 -5 -43 -32 0 -19 35 -49 57 -49 17 0 53 41 53 61 0 32 -39 69 -73
69 -37 -1 -61 -16 -80 -54 l-14 -26 -84 87 -83 88 59 3 c66 3 105 -3 105 -18
0 -6 -8 -5 -20 2 -16 10 -23 10 -36 -4 -34 -34 15 -79 56 -51 18 13 21 22 17
49 -5 28 -2 33 16 36 48 8 130 -2 159 -19z m-196 -35 c4 4 2 -1 -5 -11 -10
-13 -17 -15 -27 -6 -8 6 -11 15 -8 21 4 5 11 5 18 -1 7 -6 17 -7 22 -3z m-186
-105 c29 -32 86 -93 127 -136 l75 -79 -29 -31 c-173 -188 -231 -247 -242 -247
-5 0 -16 6 -23 14 -27 28 -173 182 -210 222 l-39 40 83 89 c46 48 103 110 127
136 24 27 52 49 61 49 10 0 41 -26 70 -57z m-230 -374 c137 -144 150 -155 180
-139 18 10 98 90 222 225 40 43 48 47 62 36 27 -22 18 -43 -45 -111 -34 -36
-102 -109 -152 -162 -50 -54 -97 -98 -105 -98 -7 0 -30 17 -50 38 -112 117
-258 276 -265 288 -8 14 8 54 22 54 4 0 63 -59 131 -131z m-202 62 c22 -2 62
-49 62 -74 0 -35 -43 -71 -74 -63 -33 8 -50 39 -36 66 11 21 19 24 44 14 20
-8 21 -24 1 -24 -19 0 -20 -26 -1 -33 32 -13 48 39 20 67 -31 31 -78 12 -89
-36 -8 -33 31 -78 69 -78 32 0 86 46 86 73 0 18 11 11 56 -38 31 -33 72 -76
91 -96 l35 -36 -64 -1 c-75 -1 -108 5 -108 18 0 6 9 5 21 -2 17 -11 22 -10 35
6 18 25 18 31 -2 50 -34 35 -79 3 -71 -50 l6 -33 -52 -3 c-75 -4 -125 10 -162
47 -37 37 -46 71 -35 122 14 60 85 117 135 108 11 -2 26 -4 33 -4z m821 -20
c91 -65 85 -189 -11 -234 -36 -17 -59 -20 -130 -18 l-47 1 6 33 c8 54 -36 86
-72 51 -19 -19 -16 -43 7 -57 21 -14 55 10 38 27 -8 8 -13 7 -19 -3 -6 -9 -11
-10 -15 -2 -4 6 -4 15 -1 21 10 16 33 12 44 -9 18 -32 -15 -51 -87 -49 -34 1
-61 5 -60 9 9 21 158 169 158 156 0 -22 57 -67 86 -67 30 0 74 41 74 70 0 25
-34 60 -59 60 -48 0 -69 -72 -23 -78 15 -2 22 2 22 12 0 9 -7 16 -15 16 -23 0
-18 18 7 26 15 4 25 1 35 -12 19 -26 13 -46 -19 -63 -25 -14 -29 -14 -55 5
-38 29 -41 60 -7 95 41 42 94 46 143 10z m-683 -182 c3 -6 1 -16 -5 -22 -8 -8
-11 -8 -11 2 0 8 -6 11 -15 7 -8 -3 -15 -2 -15 3 0 21 34 29 46 10z m-49 -128
c18 16 16 4 -3 -15 -18 -18 -34 -13 -34 12 0 12 3 13 12 4 8 -8 15 -9 25 -1z
m566 -22 c-5 -5 -17 -3 -29 7 -16 13 -16 15 -2 10 10 -3 21 0 25 6 5 9 8 9 11
-1 2 -7 0 -17 -5 -22z"/>
<path d="M479 720 c-14 -4 -19 -9 -13 -13 14 -8 16 -257 2 -274 -8 -10 -2 -13
26 -13 27 0 35 3 30 12 -13 21 -13 138 0 139 51 5 65 -6 96 -81 24 -58 34 -70
63 -70 16 0 17 2 4 14 -8 8 -24 39 -37 70 -14 35 -30 58 -43 62 -20 6 -20 7 6
20 49 26 61 78 26 110 -22 20 -117 34 -160 24z m121 -30 c43 -43 12 -108 -51
-106 l-34 1 -1 63 -1 62 33 0 c21 0 42 -8 54 -20z"/>
<path d="M114 624 c5 -13 2 -15 -14 -11 -25 7 -34 -7 -20 -32 7 -14 7 -22 -1
-26 -6 -5 -4 -12 8 -20 10 -7 21 -11 25 -9 4 2 9 0 13 -5 10 -16 33 -1 50 32
20 41 19 53 -7 71 -30 22 -62 21 -54 0z"/>
</g>
</svg>
